<svg xmlns="http://www.w3.org/2000/svg" xmlns:xlink="http://www.w3.org/1999/xlink" width="480" zoomAndPan="magnify" viewBox="0 0 360 359.999987" height="480" preserveAspectRatio="xMidYMid meet" version="1.2"><defs><clipPath id="2ca79dc5bb"><path d="M 27.640625 23 L 332 23 L 332 337 L 27.640625 337 Z M 27.640625 23 "/></clipPath></defs><g id="37d882a5a0"><g clip-rule="nonzero" clip-path="url(#2ca79dc5bb)"><path style=" stroke:none;fill-rule:nonzero;fill:#722127;fill-opacity:1;" d="M 131.871094 293.601562 C 134.046875 294.523438 136.222656 295.457031 138.402344 296.378906 C 139.125 296.6875 139.851562 296.980469 140.578125 297.28125 C 142.027344 297.640625 143.4375 298.097656 144.871094 298.503906 C 145.925781 298.800781 147.007812 298.945312 147.96875 299.453125 C 150.917969 299.898438 153.785156 300.328125 156.675781 300.769531 C 157.148438 302.78125 156.59375 304.523438 156.152344 306.269531 C 155.589844 308.496094 154.597656 310.476562 153.070312 312.230469 C 151.121094 314.46875 149.191406 316.730469 147.460938 319.132812 C 146.507812 320.457031 145.863281 322.046875 145.324219 323.601562 C 145.007812 324.5 145.101562 325.570312 145.164062 326.554688 C 145.210938 327.257812 145.503906 327.945312 145.71875 328.75 C 146.765625 329.144531 146.800781 329.148438 147.226562 328.097656 C 147.921875 326.390625 148.84375 324.8125 150.304688 323.683594 C 152.550781 321.949219 155.214844 321.019531 157.601562 320.09375 C 158.023438 322.078125 158.433594 323.984375 158.824219 325.902344 C 159.003906 326.8125 159.589844 327.0625 160.308594 326.480469 C 160.578125 326.261719 160.765625 325.945312 161.03125 325.707031 C 161.769531 325.023438 162.460938 324.277344 163.570312 323.671875 C 163.4375 324.667969 163.332031 325.414062 163.25 326.152344 C 163.105469 327.5 162.898438 328.855469 162.855469 330.207031 C 162.785156 332.226562 163.347656 334.089844 164.507812 335.753906 C 164.878906 336.289062 165.316406 336.753906 166 336.339844 C 166.609375 335.96875 166.496094 335.386719 166.144531 334.890625 C 165.566406 334.082031 165.769531 333.304688 166.34375 332.691406 C 167.058594 331.933594 167.867188 331.238281 168.726562 330.636719 C 170.332031 329.507812 172.066406 328.558594 173.628906 327.382812 C 176.5 325.21875 178.886719 322.667969 179.425781 318.886719 C 179.433594 318.855469 179.503906 318.832031 179.546875 318.800781 C 180.480469 319.359375 181.375 320.011719 182.359375 320.460938 C 187.519531 322.8125 192.671875 322.925781 197.792969 320.3125 C 198.9375 319.722656 200.015625 318.945312 201.410156 318.917969 C 201.835938 318.914062 202.324219 318.683594 202.273438 318.066406 C 202.230469 317.476562 201.765625 317.410156 201.308594 317.304688 C 199.554688 316.871094 197.773438 316.507812 196.0625 315.941406 C 194.894531 315.554688 193.824219 314.882812 192.707031 314.332031 C 192.695312 314.226562 192.675781 314.113281 192.664062 314.003906 C 194.957031 313.65625 196.386719 312.101562 197.890625 310.609375 C 198.667969 309.835938 199.640625 309.265625 200.53125 308.617188 C 200.695312 308.496094 200.9375 308.441406 201.027344 308.28125 C 201.164062 308.042969 201.328125 307.707031 201.253906 307.488281 C 201.175781 307.273438 200.839844 307.042969 200.59375 307.015625 C 200.261719 306.980469 199.917969 307.148438 199.570312 307.199219 C 198.539062 307.347656 197.503906 307.539062 196.464844 307.605469 C 195.617188 307.664062 194.753906 307.519531 193.898438 307.570312 C 191.421875 307.699219 189.21875 306.992188 187.261719 305.511719 C 186.019531 304.566406 185.136719 303.382812 185.09375 301.726562 C 185.0625 300.773438 184.992188 299.820312 184.9375 298.753906 C 186.019531 298.386719 187.398438 297.933594 188.765625 297.445312 C 191.855469 296.328125 194.863281 295.101562 197.347656 292.8125 C 198.335938 291.898438 199.539062 291.210938 200.667969 290.457031 C 204.648438 287.8125 208.835938 285.5 212.601562 282.515625 C 215.375 280.320312 217.648438 277.800781 219.246094 274.625 C 220.59375 271.960938 221.75 269.269531 222.367188 266.324219 C 222.9375 263.625 223.765625 260.976562 224.511719 258.316406 C 225.363281 255.261719 226.378906 252.246094 227.09375 249.167969 C 227.898438 245.714844 228.199219 242.207031 227.144531 238.714844 C 225.703125 233.945312 224.394531 229.128906 222.789062 224.417969 C 222.105469 222.398438 220.914062 220.523438 219.773438 218.699219 C 217.582031 215.183594 214.765625 212.167969 211.707031 209.28125 C 211.871094 208.789062 212.039062 208.269531 212.214844 207.75 C 213.238281 204.785156 214.039062 201.753906 213.980469 198.597656 C 213.882812 193.316406 213.710938 188.019531 212.019531 182.921875 C 211.925781 182.640625 211.824219 182.332031 211.839844 182.039062 C 211.976562 179.324219 210.785156 177 209.414062 174.851562 C 207.777344 172.285156 207.09375 169.507812 206.855469 166.582031 C 206.65625 164.179688 206.640625 161.761719 206.5625 159.347656 C 206.546875 158.996094 206.609375 158.648438 206.636719 158.296875 C 206.894531 155.292969 207.445312 152.304688 207.214844 149.269531 C 207.207031 149.214844 207.339844 149.152344 207.476562 149.027344 C 207.613281 149.652344 207.796875 150.234375 207.851562 150.824219 C 207.953125 151.925781 208.089844 153.042969 208.007812 154.140625 C 207.757812 157.679688 208.183594 161.183594 208.511719 164.6875 C 208.636719 166.066406 209.050781 167.472656 209.601562 168.746094 C 210.304688 170.347656 211.207031 171.878906 212.160156 173.359375 C 215.171875 178.039062 219.070312 181.996094 222.871094 186.007812 C 225.804688 189.101562 229.433594 191.140625 233.582031 192.226562 C 233.964844 192.324219 234.339844 192.457031 234.671875 192.558594 C 235.117188 196.46875 235.476562 200.324219 236.015625 204.160156 C 236.554688 207.976562 237.667969 211.617188 239.78125 214.910156 C 240.566406 216.128906 241.273438 217.421875 241.835938 218.761719 C 242.769531 220.980469 243.554688 223.269531 244.414062 225.527344 C 244.589844 225.996094 244.753906 226.492188 245.035156 226.894531 C 245.449219 227.476562 246.1875 227.351562 246.445312 226.6875 C 246.53125 226.453125 246.570312 226.195312 246.574219 225.945312 C 246.675781 223.867188 247.574219 222.105469 248.613281 220.34375 C 250.074219 217.875 251.554688 215.398438 252.726562 212.789062 C 254.824219 208.113281 256.707031 203.332031 258.679688 198.597656 C 259.023438 197.773438 259.394531 196.949219 259.695312 196.261719 C 262.566406 195.742188 265.273438 195.144531 268.007812 194.777344 C 270.300781 194.46875 272.632812 194.460938 274.925781 194.957031 C 276.140625 195.222656 277.339844 195.558594 278.550781 195.824219 C 279.597656 196.046875 280.148438 195.476562 279.777344 194.492188 C 279.53125 193.847656 279.132812 193.238281 278.710938 192.683594 C 274.707031 187.453125 270.894531 182.070312 266.289062 177.277344 C 266.339844 177.03125 266.371094 176.78125 266.4375 176.542969 C 267.515625 172.980469 268.601562 169.414062 269.671875 165.855469 C 271.203125 160.789062 271.617188 155.683594 270.300781 150.503906 C 269.929688 149.042969 269.5 147.597656 269.117188 146.136719 C 268.394531 143.359375 267.792969 140.550781 266.953125 137.8125 C 266.238281 135.472656 265.914062 133.109375 265.71875 130.691406 C 265.617188 129.40625 265.242188 128.132812 264.886719 126.878906 C 264.28125 124.753906 263.613281 122.644531 262.933594 120.539062 C 262.503906 119.203125 262.113281 117.835938 261.5 116.582031 C 260.746094 115.039062 260.316406 113.46875 260.535156 111.773438 C 260.941406 108.632812 261.394531 105.496094 261.851562 102.359375 C 262.082031 100.769531 262.445312 99.1875 262.617188 97.597656 C 262.839844 95.429688 263.3125 93.339844 264.082031 91.296875 C 265.105469 88.613281 266.164062 85.945312 266.984375 83.199219 C 268.300781 78.765625 270.578125 74.832031 273.503906 71.382812 C 276.585938 67.75 280.140625 64.515625 283.496094 61.109375 C 284.019531 60.570312 284.679688 60.144531 285.148438 59.570312 C 287.09375 57.1875 289.25 55.019531 291.53125 52.949219 C 294.195312 50.535156 296.988281 48.355469 300.160156 46.644531 C 306.578125 43.175781 313.386719 40.707031 320.355469 38.640625 C 323.414062 37.730469 326.324219 36.488281 329.167969 35.078125 C 329.4375 34.949219 329.695312 34.785156 329.960938 34.632812 C 330.339844 34.410156 330.65625 34.046875 330.335938 33.667969 C 330.140625 33.445312 329.644531 33.378906 329.300781 33.40625 C 328.96875 33.425781 328.644531 33.636719 328.324219 33.789062 C 324.460938 35.667969 320.417969 37.066406 316.332031 38.371094 C 311.242188 39.992188 306.253906 41.886719 301.371094 44.074219 C 298.1875 45.503906 295.097656 47.082031 292.488281 49.445312 C 291.074219 50.730469 289.757812 52.121094 288.351562 53.417969 C 284.140625 57.3125 279.800781 61.078125 275.714844 65.097656 C 272.699219 68.0625 269.453125 70.585938 265.730469 72.574219 C 264.546875 73.207031 263.386719 74.003906 262.433594 74.945312 C 259.894531 77.457031 257.464844 80.070312 255.019531 82.671875 C 252.742188 85.089844 250.46875 87.515625 248.273438 90.007812 C 246.210938 92.351562 244.289062 94.8125 242.238281 97.15625 C 241.117188 98.441406 239.875 99.628906 238.640625 100.804688 C 238.300781 101.125 237.863281 101.570312 237.097656 101.214844 C 238.316406 99.921875 239.460938 98.730469 240.582031 97.515625 C 241.058594 97 241.5625 96.488281 241.949219 95.910156 C 242.28125 95.414062 241.898438 94.832031 241.3125 94.921875 C 240.933594 94.976562 240.539062 95.171875 240.234375 95.402344 C 239.636719 95.867188 239.0625 96.363281 238.546875 96.914062 C 236.238281 99.40625 233.734375 101.632812 230.675781 103.175781 C 230.046875 103.496094 229.445312 103.871094 228.84375 104.234375 C 226.199219 105.820312 223.609375 107.488281 221.722656 109.988281 C 219.597656 112.800781 217.59375 115.699219 215.429688 118.480469 C 213.980469 120.347656 213.023438 122.398438 212.320312 124.636719 C 211.695312 126.640625 210.566406 128.410156 209.449219 129.820312 C 209.230469 129.0625 208.9375 128.210938 208.742188 127.34375 C 208.625 126.800781 208.453125 126.328125 207.839844 126.335938 C 207.210938 126.339844 207.09375 126.875 206.949219 127.375 C 206.761719 128.046875 206.605469 128.753906 206.265625 129.351562 C 205.488281 130.703125 204.585938 131.984375 203.773438 133.3125 C 202.535156 135.328125 201.140625 137.273438 200.15625 139.402344 C 198.589844 142.796875 196.683594 145.984375 194.839844 149.21875 C 193.449219 151.664062 192.195312 154.164062 191.9375 157.078125 C 191.617188 160.746094 190.710938 164.3125 189.625 167.835938 C 188.464844 171.585938 187.285156 175.332031 186.339844 179.136719 C 185.746094 181.519531 185.417969 183.988281 185.238281 186.4375 C 185.054688 188.914062 184.640625 191.328125 184.058594 193.753906 C 182.222656 193.410156 180.410156 193.070312 178.5625 192.726562 C 179.257812 191.027344 179.902344 189.460938 180.554688 187.894531 C 181.652344 185.222656 182.371094 182.476562 182.65625 179.589844 C 182.863281 177.496094 183.238281 175.390625 183.832031 173.375 C 185.160156 168.882812 186.183594 164.324219 187.144531 159.742188 C 188.171875 154.828125 188.960938 149.828125 191.460938 145.339844 C 191.949219 144.460938 192.414062 143.566406 192.800781 142.636719 C 194.136719 139.464844 195.949219 136.578125 197.867188 133.730469 C 199.097656 131.90625 200.097656 129.90625 201.03125 127.914062 C 201.445312 127.039062 201.503906 125.972656 201.609375 124.980469 C 201.664062 124.460938 201.410156 123.960938 200.757812 123.960938 C 200.21875 123.960938 199.960938 124.316406 199.871094 124.820312 C 199.746094 125.558594 199.609375 126.296875 199.527344 126.761719 C 198.03125 127.746094 196.683594 128.527344 195.453125 129.464844 C 192.652344 131.582031 189.707031 133.394531 186.234375 134.125 C 183.113281 134.785156 180.625 136.527344 178.242188 138.507812 C 178.035156 138.675781 177.785156 138.796875 177.488281 138.976562 C 177.078125 137.511719 176.699219 136.167969 176.304688 134.765625 C 176.730469 134.597656 177.09375 134.445312 177.472656 134.308594 C 179.214844 133.65625 180.988281 133.078125 182.691406 132.347656 C 186.597656 130.667969 190.246094 128.574219 193.4375 125.714844 C 195.347656 124.003906 197.351562 122.394531 199.371094 120.808594 C 203.339844 117.683594 207.019531 114.257812 210.429688 110.546875 C 213.726562 106.953125 215.773438 102.511719 218.46875 98.5 C 219.261719 97.320312 219.957031 96.125 221.195312 95.328125 C 221.503906 95.125 221.84375 94.570312 221.773438 94.269531 C 221.640625 93.679688 221.003906 93.683594 220.507812 93.804688 C 220.132812 93.890625 219.785156 94.136719 219.433594 94.3125 C 219.109375 94.476562 218.777344 94.644531 218.453125 94.808594 C 218.375 94.636719 218.324219 94.582031 218.339844 94.554688 C 220.277344 90.632812 218.882812 91.214844 223.691406 89.9375 C 224.90625 89.617188 226.140625 89.355469 227.328125 88.953125 C 229.753906 88.132812 232.121094 87.117188 234.578125 86.382812 C 240.265625 84.683594 245.058594 81.53125 249.332031 77.527344 C 251.316406 75.671875 253.203125 73.710938 255.074219 71.742188 C 258.585938 68.054688 261.9375 64.230469 264.710938 59.945312 C 265.949219 58.027344 267.484375 56.371094 269.058594 54.734375 C 271.359375 52.339844 273.605469 49.898438 275.890625 47.488281 C 276.726562 46.617188 277.597656 45.785156 278.488281 44.96875 C 279.683594 43.867188 281.0625 43.050781 282.574219 42.4375 C 283.070312 42.238281 283.425781 41.847656 283.164062 41.246094 C 282.929688 40.714844 282.433594 40.695312 282.003906 40.851562 C 281.0625 41.191406 280.140625 41.589844 279.214844 41.980469 C 278.597656 42.242188 277.992188 42.53125 277.28125 42.851562 C 277.214844 41.96875 277.1875 41.320312 277.109375 40.675781 C 276.925781 39.335938 276.957031 39.203125 278.199219 38.816406 C 279.058594 38.546875 279.960938 38.390625 280.847656 38.21875 C 281.941406 38.019531 283.035156 37.875 284.128906 37.679688 C 288.792969 36.847656 293.449219 35.976562 298.113281 35.171875 C 300.492188 34.757812 302.925781 34.597656 305.28125 34.089844 C 311.894531 32.671875 318.40625 30.90625 324.5 27.878906 C 326.800781 26.738281 329.0625 25.527344 331.339844 24.328125 C 331.738281 24.117188 332.183594 23.757812 331.851562 23.277344 C 331.714844 23.074219 331.09375 23.027344 330.800781 23.152344 C 329.644531 23.652344 328.550781 24.273438 327.414062 24.8125 C 323.960938 26.460938 320.589844 28.308594 317.027344 29.6875 C 311.335938 31.894531 305.4375 33.40625 299.328125 34.078125 C 290.328125 35.074219 281.300781 35.976562 272.507812 38.320312 C 272.3125 38.371094 272.105469 38.382812 271.910156 38.390625 C 268.4375 38.527344 264.964844 38.671875 261.492188 38.796875 C 259.703125 38.863281 257.976562 38.550781 256.367188 37.738281 C 254.523438 36.808594 252.738281 35.761719 250.839844 34.960938 C 248.382812 33.925781 245.84375 33.09375 243.335938 32.171875 C 240.390625 31.09375 237.363281 30.390625 234.246094 30.007812 C 231.703125 29.695312 229.167969 29.238281 226.632812 28.832031 C 224.34375 28.464844 222.066406 28.027344 219.773438 27.71875 C 212.476562 26.742188 205.292969 27.144531 198.273438 29.507812 C 196.496094 30.109375 194.832031 30.917969 193.308594 32.019531 C 191.726562 33.175781 190.132812 34.328125 188.503906 35.425781 C 185.558594 37.410156 182.972656 39.792969 180.742188 42.542969 C 178.480469 45.328125 176.046875 47.921875 173.152344 50.066406 C 172.890625 50.261719 172.621094 50.898438 172.726562 51.023438 C 172.972656 51.320312 173.453125 51.59375 173.816406 51.5625 C 174.398438 51.515625 174.957031 51.207031 175.527344 51.019531 C 177.917969 50.222656 180.273438 49.328125 182.691406 48.648438 C 186.714844 47.519531 190.804688 47.113281 194.953125 47.992188 C 198.351562 48.710938 201.777344 49.3125 205.15625 50.105469 C 210.558594 51.363281 216.042969 51.382812 221.535156 51.457031 C 224.335938 51.496094 227.082031 51.085938 229.707031 50.167969 C 235.558594 48.117188 241.386719 46.011719 247.179688 43.824219 C 248.996094 43.132812 250.820312 42.726562 252.738281 42.53125 C 256.390625 42.167969 260.039062 41.6875 263.695312 41.265625 C 264.339844 41.191406 265.011719 41.101562 265.648438 41.171875 C 267.597656 41.386719 269.464844 41.046875 271.316406 40.515625 C 272.519531 40.167969 273.722656 39.832031 274.875 39.503906 C 275.277344 40.769531 275.621094 41.925781 276.003906 43.066406 C 276.230469 43.742188 276.140625 44.320312 275.710938 44.894531 C 273.382812 47.996094 270.964844 51.023438 268.195312 53.757812 C 265.929688 55.988281 263.914062 58.410156 262.019531 60.972656 C 259.871094 63.878906 257.570312 66.703125 255.167969 69.410156 C 251.589844 73.453125 247.515625 76.980469 243.242188 80.265625 C 239.742188 82.953125 236.070312 85.367188 231.558594 85.917969 C 229.339844 86.1875 227.257812 87.191406 224.921875 86.914062 C 222.894531 86.675781 220.910156 86.402344 219.121094 85.410156 C 216.570312 83.996094 214.09375 82.441406 211.550781 81.011719 C 206.308594 78.070312 201.414062 74.617188 196.652344 70.976562 C 193.121094 68.28125 189.394531 65.847656 185.238281 64.230469 C 181.726562 62.867188 178.089844 61.804688 174.523438 60.578125 C 172.164062 59.761719 169.792969 59.710938 167.386719 60.3125 C 165.726562 60.726562 164.050781 61.109375 162.398438 61.542969 C 161.527344 61.773438 160.660156 62.058594 159.820312 62.390625 C 158.867188 62.765625 158.742188 63.152344 159.332031 63.96875 C 159.832031 64.65625 160.382812 65.328125 161 65.910156 C 162.929688 67.753906 164.921875 69.527344 166.851562 71.371094 C 169.253906 73.664062 171.941406 75.46875 175.164062 76.410156 C 175.742188 76.578125 176.285156 76.863281 176.824219 77.125 C 179.414062 78.402344 182.121094 79.3125 184.988281 79.769531 C 190.972656 80.722656 196.8125 82.164062 202.429688 84.519531 C 205.207031 85.679688 208.035156 86.804688 211.074219 87.171875 C 213.777344 87.503906 216.472656 87.8125 219.171875 88.132812 C 219.75 88.199219 220.320312 88.28125 221.152344 88.394531 C 219.878906 88.984375 218.933594 89.542969 217.914062 89.863281 C 216.714844 90.238281 215.46875 90.496094 214.226562 90.664062 C 209.074219 91.359375 203.914062 91.527344 198.699219 91.148438 C 190.652344 90.558594 182.671875 89.605469 174.757812 88.007812 C 171.816406 87.410156 168.753906 87.167969 165.75 87.179688 C 161.625 87.203125 157.488281 87.492188 153.382812 87.917969 C 146.984375 88.589844 140.890625 90.207031 135.871094 94.582031 C 135.621094 94.792969 135.144531 94.875 134.796875 94.832031 C 132.957031 94.59375 131.105469 94.332031 129.277344 94.023438 C 124.859375 93.277344 120.449219 92.480469 116.03125 91.742188 C 115.199219 91.605469 114.320312 91.503906 113.488281 91.589844 C 110.671875 91.890625 107.925781 92.496094 105.289062 93.578125 C 103.101562 94.476562 100.855469 95.253906 98.625 96.035156 C 93.355469 97.890625 88.03125 99.601562 83.257812 102.636719 C 80.34375 104.484375 77.496094 106.347656 75.90625 109.582031 C 75.710938 109.976562 75.332031 110.277344 75.0625 110.640625 C 73.410156 112.921875 71.59375 115.101562 70.164062 117.511719 C 68.363281 120.53125 66.835938 123.722656 65.28125 126.878906 C 63.917969 129.632812 62.710938 132.453125 62.195312 135.523438 C 61.476562 139.84375 60.730469 144.15625 59.925781 148.460938 C 59.425781 151.175781 59.464844 153.851562 60.007812 156.558594 C 61.105469 161.992188 62.308594 167.398438 63.925781 172.699219 C 64.027344 173.03125 64.144531 173.359375 64.222656 173.589844 C 63.820312 173.882812 63.625 174.035156 63.417969 174.171875 C 61.011719 175.769531 58.472656 176.386719 55.695312 175.226562 C 54.027344 174.523438 52.347656 173.835938 50.707031 173.074219 C 47.597656 171.632812 44.433594 171.007812 41.035156 172.003906 C 39.054688 172.585938 37.011719 172.925781 35.019531 173.464844 C 33.515625 173.871094 32.015625 174.347656 30.582031 174.945312 C 29.714844 175.300781 28.933594 175.902344 28.1875 176.484375 C 27.664062 176.894531 27.785156 177.539062 28.378906 177.832031 C 28.730469 178.007812 29.144531 178.070312 29.539062 178.152344 C 30.722656 178.398438 31.945312 178.515625 33.085938 178.886719 C 37.199219 180.214844 40.710938 182.679688 44.539062 184.960938 C 43.894531 185.355469 43.4375 185.644531 42.964844 185.917969 C 41.585938 186.722656 40.476562 187.800781 39.65625 189.160156 C 38.980469 190.28125 39.242188 190.945312 40.488281 191.285156 C 40.828125 191.378906 41.179688 191.417969 41.523438 191.503906 C 43.75 192.042969 45.972656 192.589844 48.304688 193.160156 C 47.90625 194.144531 47.585938 194.984375 47.214844 195.804688 C 46.726562 196.886719 46.445312 198.011719 46.652344 199.183594 C 46.933594 200.8125 46.480469 202.265625 45.792969 203.695312 C 45.183594 204.96875 44.5625 206.234375 44.007812 207.523438 C 43.84375 207.894531 43.691406 208.578125 43.863281 208.722656 C 44.183594 208.992188 44.769531 209.117188 45.210938 209.042969 C 45.894531 208.929688 46.558594 208.632812 47.203125 208.363281 C 49.691406 207.3125 52.316406 206.910156 55.050781 206.648438 C 55.09375 207.09375 55.121094 207.488281 55.167969 207.871094 C 55.234375 208.320312 55.289062 208.773438 55.390625 209.210938 C 55.703125 210.597656 56.074219 210.835938 57.394531 210.300781 C 58.390625 209.902344 59.320312 209.34375 60.308594 208.835938 C 60.335938 210.238281 60.289062 211.585938 60.390625 212.929688 C 60.511719 214.570312 60.328125 216.136719 59.640625 217.640625 C 59.136719 218.738281 58.65625 219.839844 58.230469 220.964844 C 58.121094 221.238281 58.152344 221.722656 58.328125 221.898438 C 58.511719 222.078125 58.980469 222.085938 59.273438 222.003906 C 59.703125 221.886719 60.066406 221.503906 60.492188 221.425781 C 62.351562 221.109375 63.84375 220.046875 65.304688 218.996094 C 68.363281 216.78125 70.351562 213.863281 70.882812 210.03125 C 71.253906 207.375 71.347656 204.730469 71.097656 202.054688 C 70.894531 199.910156 70.695312 197.726562 72.050781 195.785156 C 72.988281 194.4375 73.734375 192.890625 75.609375 192.539062 C 75.742188 192.632812 75.871094 192.707031 75.972656 192.8125 C 80.347656 197.371094 84.308594 202.328125 89.378906 206.207031 C 91.925781 208.15625 94.042969 210.644531 97.082031 212.15625 C 96.738281 212.382812 96.507812 212.5625 96.25 212.695312 C 94.601562 213.5625 92.953125 214.425781 91.292969 215.277344 C 89.601562 216.144531 88.195312 217.316406 87.125 218.902344 C 85.230469 221.691406 83.375 224.515625 81.371094 227.21875 C 78.519531 231.054688 75.621094 234.867188 72.589844 238.5625 C 70.683594 240.890625 68.488281 242.984375 66.414062 245.171875 C 65.769531 245.847656 65.949219 246.65625 66.859375 246.875 C 67.191406 246.957031 67.5625 246.933594 67.90625 246.894531 C 71.867188 246.4375 75.796875 245.835938 79.609375 244.605469 C 81.765625 243.910156 83.941406 243.265625 86.113281 242.632812 C 89.429688 241.671875 92.507812 240.25 95.441406 238.417969 C 98.210938 236.691406 101.121094 235.171875 103.972656 233.582031 C 106.480469 232.175781 108.929688 230.710938 110.941406 228.589844 C 112.121094 227.351562 113.4375 226.242188 114.828125 224.945312 C 114.816406 225.332031 114.859375 225.5 114.804688 225.621094 C 113.78125 227.78125 113.3125 230.097656 112.929688 232.441406 C 112.796875 233.273438 112.453125 234.074219 112.191406 234.890625 C 111.8125 236.039062 111.382812 237.167969 111.054688 238.324219 C 110.589844 239.96875 110.171875 241.628906 109.78125 243.289062 C 109.375 245.019531 109.28125 246.769531 109.5625 248.535156 C 109.789062 249.976562 109.976562 251.425781 110.246094 252.863281 C 110.523438 254.339844 110.847656 255.8125 111.210938 257.28125 C 111.875 259.964844 112.570312 262.640625 113.269531 265.320312 C 113.429688 265.957031 113.574219 266.601562 113.792969 267.207031 C 115.015625 270.5625 116.125 273.960938 117.535156 277.230469 C 119.355469 281.457031 121.660156 285.410156 125.164062 288.53125 C 127.238281 290.4375 129.214844 292.476562 131.871094 293.601562 Z M 189.980469 40.632812 C 190.949219 41.164062 191.917969 41.703125 193.121094 42.367188 C 191.535156 42.621094 190.140625 42.777344 188.777344 43.070312 C 187.398438 43.371094 186.046875 43.765625 184.699219 44.199219 C 183.3125 44.644531 181.960938 45.175781 180.5 45.703125 C 181 45.019531 181.464844 44.363281 181.953125 43.734375 C 182.480469 43.058594 183 42.375 183.589844 41.753906 C 185.367188 39.886719 187.386719 38.3125 189.570312 36.933594 C 191.1875 35.914062 192.753906 34.816406 194.3125 33.710938 C 195.765625 32.683594 197.328125 31.921875 199.007812 31.324219 C 207.578125 28.308594 216.289062 28.242188 225.101562 29.933594 C 226.933594 30.285156 228.75 30.722656 230.597656 30.9375 C 235.996094 31.558594 241.167969 33 246.15625 35.097656 C 249.621094 36.550781 253.058594 38.074219 256.566406 39.59375 C 256.386719 39.785156 256.359375 39.847656 256.316406 39.855469 C 251.140625 40.902344 245.957031 41.941406 240.777344 42.988281 C 238.089844 43.535156 235.367188 43.523438 232.648438 43.347656 C 232.203125 43.316406 231.757812 43.191406 231.324219 43.066406 C 230.792969 42.90625 230.273438 42.71875 229.753906 42.527344 C 224.066406 40.445312 224.78125 40.839844 221.578125 36.796875 C 220.582031 35.535156 219.503906 34.378906 217.988281 33.679688 C 218.644531 34.316406 219.339844 34.910156 219.941406 35.597656 C 220.734375 36.507812 221.484375 37.460938 222.175781 38.445312 C 224 41.027344 223.980469 41.039062 227.277344 42.839844 C 226.875 42.808594 226.726562 42.796875 226.574219 42.789062 C 223.460938 42.625 220.339844 42.394531 217.214844 42.320312 C 214.828125 42.257812 212.527344 41.828125 210.246094 41.183594 C 208.835938 40.78125 207.765625 39.894531 206.710938 38.945312 C 205.292969 37.675781 203.867188 36.402344 202.417969 35.167969 C 202.0625 34.859375 201.597656 34.679688 201.027344 34.652344 C 202.296875 35.773438 203.601562 36.867188 204.84375 38.023438 C 206.121094 39.230469 207.339844 40.496094 208.753906 41.90625 C 208.121094 41.917969 207.601562 41.9375 207.082031 41.9375 C 204.210938 41.929688 201.320312 41.691406 198.480469 41.980469 C 195.773438 42.257812 193.277344 42.125 190.921875 40.707031 C 190.796875 40.632812 190.640625 40.613281 190.488281 40.578125 C 190.339844 40.558594 190.195312 40.53125 189.980469 40.632812 Z M 226.09375 49.46875 C 225.425781 49.703125 224.738281 49.890625 224.042969 49.964844 C 218.011719 50.625 211.996094 50.855469 206.046875 49.28125 C 203.277344 48.550781 200.523438 47.746094 197.75 47.039062 C 193.824219 46.042969 189.871094 45.332031 185.777344 46.078125 C 189.21875 44.261719 202.511719 42.398438 208.667969 42.859375 C 207.476562 43.371094 206.566406 43.703125 205.707031 44.144531 C 204.832031 44.585938 204.003906 45.132812 202.902344 45.785156 C 203.34375 45.777344 203.488281 45.808594 203.597656 45.765625 C 205.53125 44.9375 207.480469 44.136719 209.402344 43.257812 C 210.710938 42.664062 212.089844 42.746094 213.410156 42.914062 C 215.855469 43.222656 218.277344 43.699219 220.765625 43.472656 C 221.019531 43.445312 221.296875 43.589844 221.609375 43.671875 C 219.277344 44.851562 217.042969 45.972656 214.804688 47.101562 C 214.855469 47.207031 214.898438 47.316406 214.949219 47.414062 C 215.804688 47.058594 216.714844 46.789062 217.511719 46.316406 C 220.570312 44.519531 223.875 43.859375 227.371094 44.066406 C 229.726562 44.207031 232.085938 44.417969 234.449219 44.574219 C 235.78125 44.664062 237.117188 44.71875 238.824219 44.808594 C 238.363281 45.082031 238.226562 45.203125 238.0625 45.257812 C 234.066406 46.679688 230.085938 48.085938 226.09375 49.46875 Z M 191.542969 79.207031 C 188.515625 78.722656 185.476562 78.296875 182.460938 77.738281 C 181.289062 77.519531 180.152344 77.054688 179.039062 76.609375 C 177.125 75.847656 175.257812 74.976562 173.347656 74.203125 C 171.234375 73.351562 169.648438 71.796875 168.019531 70.3125 C 166.3125 68.75 164.691406 67.113281 162.765625 65.253906 C 167.410156 66.113281 171.667969 67.039062 175.664062 68.863281 C 177.265625 69.589844 178.914062 70.242188 180.429688 71.113281 C 181.722656 71.859375 182.96875 72.757812 184.027344 73.789062 C 186.078125 75.789062 188.441406 77.261719 190.996094 78.472656 C 191.34375 78.636719 191.660156 78.835938 191.976562 79.273438 C 191.84375 79.25 191.691406 79.230469 191.542969 79.207031 Z M 208.898438 85.488281 C 208.417969 85.429688 207.953125 85.160156 207.5 84.953125 C 205.496094 84.03125 203.550781 82.929688 201.476562 82.214844 C 197.730469 80.921875 194.292969 79.035156 190.933594 77.019531 C 188.785156 75.726562 186.824219 74.128906 184.71875 72.761719 C 183.207031 71.777344 181.652344 70.820312 180.023438 70.054688 C 174.820312 67.621094 169.460938 65.578125 163.914062 64.050781 C 163.4375 63.917969 162.972656 63.738281 162.503906 63.578125 C 162.515625 63.511719 162.523438 63.4375 162.535156 63.367188 C 164.535156 62.878906 166.535156 62.359375 168.546875 61.898438 C 170.351562 61.492188 172.136719 61.59375 173.90625 62.1875 C 176.574219 63.089844 179.277344 63.894531 181.941406 64.816406 C 187.363281 66.683594 192.28125 69.492188 196.976562 72.769531 C 201.308594 75.796875 205.769531 78.640625 210.175781 81.5625 C 211.9375 82.730469 213.710938 83.882812 215.5 85.015625 C 216.132812 85.417969 216.808594 85.75 217.46875 86.113281 C 217.386719 86.21875 217.328125 86.351562 217.292969 86.34375 C 214.496094 86.074219 211.695312 85.804688 208.898438 85.488281 Z M 159.738281 324.914062 C 159.433594 323.027344 158.917969 321.394531 159.15625 319.527344 C 160.277344 319.285156 161.367188 319.046875 162.804688 318.730469 C 162 319.816406 161.425781 320.601562 160.847656 321.382812 C 162.121094 321.15625 162.703125 320.023438 163.769531 319.296875 C 163.949219 322.296875 162.078125 323.613281 159.738281 324.914062 Z M 190.503906 308.671875 C 192.269531 308.859375 194.074219 308.710938 195.957031 308.703125 C 195.898438 308.835938 195.816406 309.027344 195.699219 309.304688 C 196.003906 309.398438 196.300781 309.488281 196.644531 309.585938 C 196.582031 309.75 196.558594 309.894531 196.488281 310.007812 C 195.441406 311.71875 193.988281 312.847656 191.976562 313.210938 C 191.296875 313.335938 190.722656 313.214844 190.121094 312.851562 C 188.621094 311.957031 187.507812 310.664062 186.441406 309.34375 C 185.695312 308.414062 185.808594 307.191406 185.601562 305.84375 C 187.457031 306.828125 188.632812 308.472656 190.503906 308.671875 Z M 172.519531 301.1875 C 172.9375 302.898438 172.78125 304.660156 173.320312 306.359375 C 173.445312 304.648438 173.566406 302.929688 173.691406 301.261719 C 175.265625 300.800781 176.738281 300.367188 178.328125 299.898438 C 178.617188 300.378906 178.945312 300.910156 179.421875 301.707031 C 179.558594 301 179.652344 300.546875 179.765625 299.953125 C 180.855469 299.753906 181.882812 299.5625 183.136719 299.339844 C 183.34375 300.390625 183.613281 301.402344 183.734375 302.421875 C 183.878906 303.71875 183.988281 305.03125 183.941406 306.332031 C 183.902344 307.21875 183.542969 308.089844 183.355469 308.972656 C 183.199219 309.707031 183.042969 310.445312 182.972656 311.191406 C 182.941406 311.542969 183.125 311.914062 183.261719 312.5 C 184.191406 311.40625 183.851562 310.15625 184.515625 309.128906 C 187.601562 313.003906 192.195312 314.78125 196.136719 317.691406 C 195.59375 317.921875 195.109375 318.128906 194.632812 318.335938 C 194.640625 318.425781 194.652344 318.519531 194.65625 318.605469 C 195.546875 318.613281 196.4375 318.613281 197.328125 318.617188 C 195.429688 320.140625 193.308594 321.09375 190.984375 321.15625 C 186.96875 321.265625 183.34375 320.105469 180.390625 317.203125 C 179.828125 316.652344 179.453125 316.054688 179.246094 315.308594 C 179.125 314.894531 178.925781 314.5 178.488281 314.105469 C 178.378906 314.511719 178.167969 314.921875 178.1875 315.320312 C 178.398438 320.570312 175.742188 324.246094 171.71875 327.175781 C 170.902344 327.765625 170.039062 328.289062 169.246094 328.910156 C 167.957031 329.933594 166.710938 331.003906 165.417969 332.082031 C 165.242188 329.636719 166.320312 327.433594 167.191406 325.175781 C 165.71875 326.917969 164.972656 328.96875 164.234375 331.136719 C 164.140625 330.554688 164 329.976562 163.964844 329.386719 C 163.757812 326.523438 164.617188 323.816406 165.21875 321.0625 C 165.488281 319.839844 165.675781 318.59375 165.945312 317.371094 C 166.039062 316.953125 166.238281 316.539062 166.457031 316.15625 C 167.753906 313.894531 167.855469 311.511719 167.046875 309.003906 C 166.945312 309.296875 166.808594 309.59375 166.746094 309.894531 C 166.582031 310.628906 166.453125 311.375 166.300781 312.113281 C 165.757812 314.8125 164.1875 316.449219 161.539062 317.421875 C 157.816406 318.792969 154.183594 320.457031 150.601562 322.167969 C 149.320312 322.773438 148.289062 323.898438 147.210938 324.730469 C 147.246094 323.375 147.464844 322.875 149.257812 319.953125 C 148.921875 320.300781 148.582031 320.636719 148.0625 321.164062 C 148.488281 319.246094 149.296875 317.746094 150.292969 316.40625 C 151.246094 315.128906 152.410156 313.992188 153.539062 312.859375 C 154.421875 311.96875 155.394531 311.171875 156.40625 310.269531 C 156.378906 311.015625 156.355469 311.761719 156.328125 312.515625 C 156.417969 312.5625 156.5 312.621094 156.585938 312.671875 C 156.792969 312.402344 157.105469 312.15625 157.1875 311.855469 C 157.703125 309.964844 158.152344 308.09375 157.890625 306.0625 C 157.683594 304.503906 157.925781 302.878906 157.976562 301.144531 C 158.71875 301.257812 159.242188 301.339844 159.632812 301.394531 C 159.851562 302.511719 160.050781 303.507812 160.253906 304.511719 C 160.320312 304.515625 160.390625 304.523438 160.464844 304.527344 C 160.617188 303.570312 160.765625 302.609375 160.941406 301.539062 C 161.714844 301.570312 162.402344 301.59375 163.148438 301.625 C 163.292969 302.296875 163.429688 302.925781 163.570312 303.550781 C 163.636719 303.5625 163.714844 303.570312 163.78125 303.582031 C 163.9375 302.980469 164.101562 302.386719 164.285156 301.703125 C 166.964844 301.539062 169.667969 301.371094 172.519531 301.1875 Z M 205.722656 151.386719 C 205.640625 153.601562 205.46875 155.808594 205.402344 158.019531 C 205.371094 158.964844 205.507812 159.917969 205.570312 160.867188 C 205.644531 162.121094 205.777344 163.371094 205.789062 164.625 C 205.828125 168.386719 206.347656 172.023438 207.902344 175.507812 C 208.835938 177.609375 209.84375 179.714844 210.027344 182.082031 C 210.070312 182.609375 210.335938 183.148438 210.605469 183.617188 C 211.375 184.949219 211.851562 186.363281 212.082031 187.867188 C 212.691406 191.761719 212.9375 195.664062 212.492188 199.601562 C 211.988281 203.988281 210.339844 207.933594 208.128906 211.71875 C 207.042969 213.574219 206.214844 215.589844 205.421875 217.597656 C 203.488281 222.472656 201.421875 227.269531 198.113281 231.414062 C 197.953125 231.605469 197.796875 231.808594 197.667969 232.019531 C 193.835938 238.167969 188.238281 242.394531 182.246094 246.199219 C 182.183594 246.234375 182.066406 246.191406 182.039062 246.191406 C 185.539062 240.59375 188.546875 234.722656 190.933594 228.339844 C 192.070312 230.289062 192.320312 232.289062 192.941406 234.25 C 193.003906 233.957031 193.167969 233.648438 193.117188 233.378906 C 192.808594 231.808594 192.597656 230.195312 192.0625 228.699219 C 191.613281 227.433594 191.5625 226.339844 192.007812 225.074219 C 193.007812 222.230469 193.914062 219.347656 194.757812 216.449219 C 195.148438 215.121094 195.304688 213.722656 195.605469 212.144531 C 197.222656 215.121094 198.71875 217.890625 200.160156 220.554688 C 200.253906 219.761719 200.128906 219.027344 199.527344 217.835938 C 199.027344 216.851562 198.429688 215.910156 197.917969 214.933594 C 197.496094 214.132812 197.101562 213.316406 196.746094 212.484375 C 196.238281 211.296875 196.199219 210.113281 196.476562 208.808594 C 197.765625 202.703125 198.820312 196.554688 199.078125 190.300781 C 199.082031 190.074219 199.140625 189.847656 199.171875 189.625 C 200.292969 191.421875 201.296875 193.207031 202.480469 194.863281 C 204.167969 197.226562 206.085938 199.433594 207.332031 202.160156 C 207.28125 201.859375 207.269531 201.550781 207.179688 201.261719 C 206.609375 199.359375 205.597656 197.691406 204.375 196.128906 C 202.503906 193.742188 200.886719 191.210938 199.792969 188.355469 C 199.390625 187.304688 199.152344 186.265625 199.222656 185.121094 C 199.382812 182.410156 199.492188 179.695312 199.628906 176.980469 C 199.640625 176.691406 199.691406 176.410156 199.761719 175.871094 C 200.8125 177.117188 201.773438 178.132812 202.597656 179.25 C 203.390625 180.308594 204.046875 181.46875 204.761719 182.585938 C 204.867188 182.535156 204.96875 182.492188 205.074219 182.441406 C 204.863281 181.800781 204.773438 181.085938 204.421875 180.542969 C 203.503906 179.113281 202.566406 177.664062 201.445312 176.390625 C 200.1875 174.957031 199.464844 173.476562 199.585938 171.507812 C 199.792969 168.050781 199.828125 164.578125 199.960938 161.109375 C 199.980469 160.582031 200.128906 160.0625 200.324219 159.535156 C 200.832031 160.621094 200.976562 161.835938 202.011719 162.660156 C 201.960938 162.292969 201.949219 161.917969 201.859375 161.566406 C 201.714844 160.984375 201.507812 160.414062 201.351562 159.824219 C 200.90625 158.140625 200.824219 156.496094 201.527344 154.8125 C 202.914062 151.476562 204.183594 148.089844 205.757812 144.757812 C 205.785156 145.050781 205.828125 145.347656 205.820312 145.648438 C 205.796875 147.566406 205.789062 149.476562 205.722656 151.386719 Z M 197.949219 178.867188 C 197.96875 179.367188 197.972656 179.75 198 180.128906 C 198.199219 183.398438 197.75 186.644531 197.484375 189.894531 C 197.171875 193.765625 195.234375 196.773438 191.945312 198.886719 C 192.933594 198.988281 193.183594 198.90625 194.167969 197.914062 C 194.847656 197.238281 195.515625 196.554688 196.09375 195.796875 C 196.621094 195.101562 197.019531 194.300781 197.75 193.609375 C 197.554688 195.234375 197.421875 196.863281 197.160156 198.480469 C 196.703125 201.261719 196.261719 204.050781 195.636719 206.792969 C 195.070312 209.273438 193.84375 211.460938 192.042969 213.304688 C 191.417969 213.941406 190.796875 214.582031 190.042969 215.347656 C 191.179688 215.148438 191.8125 214.640625 194.105469 212.21875 C 193.988281 212.738281 193.9375 213.058594 193.84375 213.367188 C 192.601562 217.460938 191.335938 221.539062 190.140625 225.644531 C 189.886719 226.5 189.519531 227.21875 188.949219 227.878906 C 188.570312 228.308594 188.257812 228.796875 188.144531 229.445312 C 188.394531 229.25 188.648438 229.054688 189.046875 228.742188 C 188.949219 229.175781 188.910156 229.480469 188.804688 229.769531 C 187.363281 233.542969 185.324219 237.023438 183.539062 240.621094 C 182.367188 242.984375 180.914062 245.101562 179.042969 247.027344 C 179.277344 246.554688 179.484375 246.074219 179.746094 245.621094 C 182.628906 240.589844 185.210938 235.429688 186.628906 229.75 C 187.457031 226.441406 187.507812 223.074219 187.644531 219.710938 C 187.996094 211.199219 188.898438 202.753906 190.726562 194.417969 C 190.804688 194.074219 190.859375 193.722656 190.984375 193.398438 C 192.5 189.402344 193.039062 185.222656 193.535156 181.015625 C 194.050781 176.671875 194.894531 172.375 195.152344 167.984375 C 195.277344 165.792969 196 163.636719 196.25 161.441406 C 196.757812 156.984375 198.125 152.855469 200.1875 148.863281 C 202.449219 144.492188 204.390625 139.960938 206.679688 135.503906 C 206.625 135.996094 206.597656 136.488281 206.511719 136.972656 C 205.664062 141.546875 204.167969 145.917969 202.347656 150.191406 C 201.363281 152.503906 200.375 154.816406 199.445312 157.15625 C 198.429688 159.710938 198.019531 162.402344 198.003906 165.132812 C 198 167.246094 198.128906 169.359375 198.269531 171.472656 C 198.460938 174.410156 198.09375 177.1875 196.230469 179.605469 C 196.113281 179.765625 196.035156 179.957031 195.972656 180.144531 C 195.941406 180.226562 195.988281 180.339844 196.011719 180.617188 C 196.671875 180.015625 197.246094 179.5 197.949219 178.867188 Z M 245.152344 223.007812 C 244.769531 222.179688 244.402344 221.347656 244 220.523438 C 243.597656 219.714844 243.148438 218.925781 242.757812 218.113281 C 241.886719 216.300781 241.042969 214.480469 240.1875 212.660156 C 238.507812 209.042969 237.011719 205.367188 236.734375 201.324219 C 236.597656 199.320312 236.523438 197.308594 236.402344 195.300781 C 236.359375 194.550781 236.277344 193.804688 236.195312 192.894531 C 239.378906 193.671875 242.722656 193.371094 245.992188 194.925781 C 244.300781 196.109375 242.746094 197.203125 241.183594 198.296875 C 241.242188 198.390625 241.304688 198.488281 241.359375 198.574219 C 242.910156 197.710938 244.464844 196.84375 246.011719 195.964844 C 246.230469 195.839844 246.414062 195.660156 246.625 195.527344 C 247.339844 195.09375 247.785156 195.300781 247.785156 196.140625 C 247.792969 197.296875 247.796875 198.460938 247.660156 199.601562 C 247.175781 203.539062 246.003906 207.238281 243.628906 210.484375 C 243.355469 210.859375 243.214844 211.335938 243.015625 211.761719 C 243.101562 211.820312 243.199219 211.867188 243.285156 211.925781 C 243.863281 211.140625 244.4375 210.359375 245.203125 209.316406 C 245.402344 210.476562 245.257812 211.304688 245.171875 212.113281 C 244.941406 214.21875 244.832031 216.289062 245.222656 218.414062 C 245.492188 219.878906 245.304688 221.421875 245.152344 223.007812 Z M 246.683594 219.714844 C 245.925781 215.597656 246.738281 211.535156 246.988281 207.457031 C 247.101562 207.425781 247.214844 207.398438 247.328125 207.367188 C 247.710938 208.203125 248.125 209.015625 248.460938 209.867188 C 248.808594 210.734375 249.070312 211.628906 249.460938 212.5 C 249.628906 211.566406 249.347656 210.691406 249.058594 209.8125 C 248.652344 208.570312 248.238281 207.335938 247.90625 206.078125 C 247.78125 205.613281 247.792969 205.0625 247.898438 204.589844 C 248.519531 201.945312 249.222656 199.328125 249.269531 196.585938 C 249.269531 196.441406 249.378906 196.304688 249.441406 196.140625 C 252.222656 196.253906 255.007812 196.363281 257.738281 196.46875 C 255.570312 204.921875 252.316406 212.898438 246.683594 219.714844 Z M 272.765625 192.652344 C 270.132812 192.632812 267.585938 193.015625 265.015625 193.710938 C 260.722656 194.875 256.328125 195.394531 251.855469 194.886719 C 249.753906 194.648438 247.929688 193.710938 246.03125 192.953125 C 244.332031 192.273438 242.597656 191.859375 240.789062 191.589844 C 238.007812 191.179688 235.21875 190.6875 232.484375 190.035156 C 228.191406 189.015625 224.550781 186.804688 221.804688 183.332031 C 218.03125 178.554688 214.394531 173.664062 211.488281 168.285156 C 210.546875 166.539062 209.996094 164.695312 209.605469 162.746094 C 208.929688 159.367188 208.710938 155.976562 208.722656 152.542969 C 208.730469 150.484375 208.480469 148.421875 208.335938 146.367188 C 208.152344 143.84375 208.335938 141.351562 208.988281 138.890625 C 209.273438 137.800781 209.3125 136.640625 209.464844 135.511719 C 209.542969 135.503906 209.621094 135.5 209.703125 135.492188 C 209.820312 135.976562 209.964844 136.457031 210.058594 136.945312 C 210.773438 140.703125 212.140625 144.167969 214.421875 147.277344 C 215.523438 148.769531 216.457031 150.390625 217.421875 151.976562 C 217.648438 152.347656 217.761719 152.816406 217.820312 153.257812 C 218.050781 155.113281 218.105469 156.960938 217.484375 158.777344 C 216.796875 160.789062 216.453125 162.871094 216.433594 165.003906 C 216.425781 165.59375 216.476562 166.179688 216.765625 166.78125 C 216.796875 166.476562 216.816406 166.167969 216.851562 165.863281 C 217.085938 164.117188 217.171875 162.34375 217.597656 160.644531 C 218.144531 158.457031 219.070312 156.351562 218.488281 153.988281 C 218.753906 154.027344 218.882812 154.015625 218.910156 154.058594 C 220.25 156.289062 222.433594 157.601562 224.375 159.191406 C 225.796875 160.363281 227.195312 161.667969 228.25 163.160156 C 228.988281 164.210938 229.199219 165.667969 229.515625 166.972656 C 229.683594 167.683594 229.640625 168.480469 229.566406 169.226562 C 229.257812 172.261719 229.644531 175.261719 229.898438 178.265625 C 229.996094 179.429688 230.359375 180.578125 230.648438 181.933594 C 230.875 181.625 230.96875 181.554688 230.957031 181.507812 C 230.191406 177.476562 230.148438 173.414062 230.285156 169.332031 C 230.34375 167.617188 230.039062 165.878906 229.898438 164.054688 C 231.195312 165.226562 232.453125 166.417969 233.765625 167.546875 C 236.058594 169.507812 238.359375 171.464844 240.722656 173.351562 C 241.472656 173.953125 242.011719 174.585938 242.214844 175.519531 C 242.714844 177.828125 243.316406 180.113281 243.707031 182.441406 C 244.164062 185.167969 245.058594 187.691406 246.53125 190.023438 C 246.675781 190.25 246.902344 190.433594 247.308594 190.496094 C 246.996094 189.878906 246.695312 189.261719 246.371094 188.652344 C 245.441406 186.902344 244.828125 185.046875 244.5 183.09375 C 244.070312 180.523438 243.628906 177.953125 243.191406 175.34375 C 243.214844 175.34375 243.378906 175.300781 243.472656 175.355469 C 247.101562 177.644531 250.933594 179.53125 254.882812 181.210938 C 255.714844 181.570312 256.523438 182.257812 257.054688 183.003906 C 258.160156 184.550781 259.117188 186.214844 260.035156 187.886719 C 260.921875 189.515625 261.839844 191.097656 263.417969 192.191406 C 262.464844 190.527344 261.511719 188.859375 260.554688 187.199219 C 259.605469 185.542969 258.648438 183.894531 257.65625 182.175781 C 259.09375 182.328125 260.410156 182.847656 261.683594 183.472656 C 265.359375 185.292969 268.664062 187.675781 271.78125 190.332031 C 272.570312 191.003906 273.335938 191.703125 274.351562 192.605469 C 273.609375 192.632812 273.183594 192.65625 272.765625 192.652344 Z M 267.992188 181.777344 C 270.4375 184.15625 272.75 186.703125 274.582031 189.625 C 274.757812 189.898438 274.9375 190.175781 275.121094 190.445312 C 270.457031 187.222656 265.699219 184.265625 260.308594 181.769531 C 261.746094 181.605469 262.878906 181.476562 264.382812 181.300781 C 263.820312 181.085938 263.59375 180.929688 263.363281 180.921875 C 262.808594 180.90625 262.253906 180.949219 261.699219 180.96875 C 259.398438 181.054688 257.175781 180.792969 255.113281 179.683594 C 252.535156 178.304688 249.960938 176.929688 247.398438 175.53125 C 246.832031 175.226562 246.304688 174.84375 245.464844 174.296875 C 248.085938 174.234375 250.363281 174.179688 252.632812 174.121094 C 252.644531 173.992188 252.65625 173.859375 252.664062 173.726562 C 252.074219 173.664062 251.484375 173.566406 250.886719 173.539062 C 248.976562 173.445312 247.066406 173.394531 245.152344 173.296875 C 244.074219 173.238281 243.128906 172.835938 242.246094 172.179688 C 239.417969 170.074219 236.554688 168.015625 233.703125 165.9375 C 233.4375 165.75 233.199219 165.523438 232.875 165.253906 C 234.980469 165.359375 236.9375 165.453125 238.898438 165.546875 C 238.910156 165.421875 238.929688 165.289062 238.941406 165.164062 C 238.269531 165.066406 237.605469 164.945312 236.929688 164.871094 C 236.226562 164.789062 235.511719 164.816406 234.824219 164.695312 C 232.5625 164.292969 230.546875 163.546875 228.882812 161.742188 C 226.90625 159.605469 224.601562 157.78125 222.476562 155.777344 C 221.886719 155.21875 221.453125 154.484375 220.734375 153.558594 C 222.652344 153.945312 224.207031 154.242188 225.839844 153.910156 C 225.554688 153.789062 225.269531 153.640625 224.96875 153.5625 C 224.429688 153.4375 223.878906 153.363281 223.339844 153.257812 C 221.339844 152.875 219.710938 152.007812 218.527344 150.230469 C 217.167969 148.179688 215.5 146.335938 214.144531 144.285156 C 212.316406 141.523438 211.035156 138.53125 211.429688 134.859375 C 211.644531 135.222656 211.792969 135.425781 211.890625 135.648438 C 213.710938 140.082031 216.589844 143.683594 220.332031 146.664062 C 224.625 150.078125 228.824219 153.613281 233.105469 157.042969 C 236.761719 159.96875 240.351562 162.992188 244.484375 165.257812 C 245.667969 165.910156 246.941406 166.425781 248.207031 166.914062 C 251.757812 168.300781 255.050781 170.167969 257.941406 172.625 C 261.394531 175.558594 264.753906 178.617188 267.992188 181.777344 Z M 247.492188 148.636719 C 248.738281 147.539062 250.066406 146.523438 251.207031 145.339844 C 252.347656 144.15625 253.3125 142.796875 254.390625 141.460938 C 254.421875 141.542969 254.53125 141.691406 254.53125 141.84375 C 254.410156 145.816406 254.234375 149.785156 254.160156 153.757812 C 254.105469 156.785156 252.378906 158.664062 250 160.136719 C 249.269531 160.589844 248.488281 160.945312 247.75 161.375 C 247.464844 161.535156 247.214844 161.761719 247.027344 162.070312 C 249.398438 161.390625 251.496094 160.238281 253.300781 158.523438 C 252.949219 161.261719 252.613281 163.886719 252.273438 166.511719 C 248.074219 165.824219 242.570312 163.128906 238.597656 159.738281 C 238.746094 158.226562 239.429688 156.816406 239.90625 155.351562 C 240.140625 154.636719 240.402344 153.925781 240.601562 153.199219 C 242.226562 147.339844 243.835938 141.464844 245.460938 135.605469 C 246.097656 133.304688 247.214844 131.230469 248.511719 129.230469 C 250.84375 125.660156 253.488281 122.261719 254.800781 118.097656 C 254.914062 118.128906 255.03125 118.160156 255.152344 118.1875 C 254.851562 119.296875 254.59375 120.417969 254.242188 121.515625 C 253.464844 123.964844 253.359375 126.417969 253.765625 128.96875 C 254.160156 131.445312 254.359375 133.96875 254.4375 136.484375 C 254.523438 139.625 253.039062 142.191406 251.019531 144.476562 C 250.324219 145.265625 249.453125 145.890625 248.71875 146.648438 C 247.992188 147.402344 247.347656 148.230469 246.859375 149.226562 C 247.066406 149.03125 247.277344 148.832031 247.492188 148.636719 Z M 258.535156 112.5 C 258.464844 114.320312 258.9375 115.949219 259.9375 117.496094 C 260.617188 118.539062 261.117188 119.710938 261.574219 120.875 C 262.402344 122.980469 263.203125 125.101562 263.886719 127.257812 C 264.296875 128.535156 264.621094 129.882812 264.691406 131.21875 C 264.980469 136.789062 266.234375 142.148438 267.851562 147.464844 C 268.609375 149.960938 269.148438 152.542969 269.511719 155.125 C 269.886719 157.84375 269.398438 160.546875 268.609375 163.171875 C 267.824219 165.773438 266.992188 168.363281 266.269531 170.980469 C 265.804688 172.667969 265.503906 174.398438 265.109375 176.230469 C 264.328125 175.515625 263.570312 174.863281 262.855469 174.167969 C 260.542969 171.890625 257.945312 169.984375 255.207031 168.273438 C 254.160156 167.621094 253.753906 166.84375 253.941406 165.65625 C 254.246094 163.71875 254.5 161.769531 254.804688 159.832031 C 254.886719 159.3125 255.09375 158.808594 255.277344 158.175781 C 257.578125 161.085938 259.769531 163.804688 261.894531 166.582031 C 262.523438 167.410156 262.949219 168.386719 263.585938 169.523438 C 263.644531 168.367188 263.335938 167.480469 262.785156 166.707031 C 261.386719 164.738281 259.925781 162.820312 258.515625 160.859375 C 257.789062 159.84375 257.054688 158.816406 256.449219 157.726562 C 255.800781 156.566406 255.640625 155.292969 255.644531 153.945312 C 255.671875 150.121094 255.539062 146.292969 255.515625 142.46875 C 255.5 140.957031 255.59375 139.449219 255.652344 137.945312 C 255.660156 137.722656 255.722656 137.503906 255.816406 136.945312 C 256.121094 137.542969 256.308594 137.824219 256.417969 138.132812 C 257.113281 140.117188 258.265625 141.785156 259.777344 143.253906 C 261.394531 144.820312 262.890625 146.5 264.441406 148.136719 C 263.925781 146.535156 262.773438 145.402344 261.738281 144.1875 C 261.054688 143.378906 260.257812 142.667969 259.621094 141.828125 C 259.011719 141.039062 258.472656 140.175781 258.027344 139.285156 C 257.3125 137.84375 256.667969 136.371094 256.066406 134.878906 C 255.847656 134.339844 255.777344 133.71875 255.738281 133.128906 C 255.621094 131.222656 255.5 129.3125 255.476562 127.40625 C 255.457031 126.007812 255.488281 124.59375 255.664062 123.207031 C 255.929688 121.164062 256.367188 119.144531 256.6875 117.109375 C 257 115.117188 257.625 113.230469 258.542969 111.398438 C 258.542969 111.757812 258.546875 112.125 258.535156 112.5 Z M 256.421875 114.03125 L 256.148438 113.949219 C 256.335938 113.5 256.523438 113.039062 256.710938 112.589844 C 256.609375 113.070312 256.515625 113.554688 256.421875 114.03125 Z M 257.417969 111.097656 C 257.226562 111.480469 257.023438 111.863281 256.832031 112.246094 C 256.9375 111.824219 257.050781 111.410156 257.15625 110.992188 C 257.242188 111.027344 257.332031 111.058594 257.417969 111.097656 Z M 260.339844 99.984375 C 259.90625 101.4375 259.476562 102.898438 259.050781 104.351562 C 258.917969 104.316406 258.792969 104.277344 258.660156 104.242188 C 259.097656 102.785156 259.542969 101.332031 259.984375 99.878906 C 260.101562 99.914062 260.222656 99.945312 260.339844 99.984375 Z M 212.128906 131.285156 C 212.050781 131.0625 211.976562 130.828125 211.96875 130.597656 C 211.9375 130.027344 211.945312 129.449219 211.9375 128.65625 C 213.40625 127.144531 214.101562 125.007812 214.847656 122.851562 C 216.164062 119.027344 218.601562 115.917969 221.328125 112.953125 C 225.238281 108.691406 229.902344 105.527344 235.035156 102.867188 C 235.082031 102.867188 235.199219 102.835938 235.273438 102.878906 C 236.960938 103.921875 238.457031 103.589844 239.757812 102.214844 C 240.929688 100.976562 242.214844 99.785156 243.140625 98.375 C 245.835938 94.269531 248.988281 90.570312 252.53125 87.179688 C 256.199219 83.664062 259.808594 80.082031 263.519531 76.617188 C 264.722656 75.496094 266.144531 74.597656 267.511719 73.660156 C 268.625 72.894531 269.800781 72.21875 271.171875 71.363281 C 270.996094 71.734375 270.933594 71.929688 270.828125 72.097656 C 269.515625 74.183594 268.132812 76.230469 266.929688 78.371094 C 266.34375 79.40625 265.996094 80.605469 265.726562 81.769531 C 264.921875 85.210938 263.8125 88.53125 262.371094 91.765625 C 260.960938 94.9375 259.667969 98.160156 258.355469 101.371094 C 258.007812 102.203125 257.671875 103.0625 257.507812 103.945312 C 257.019531 106.585938 256.121094 109.078125 255.113281 111.5625 C 254.449219 113.183594 253.941406 114.882812 253.484375 116.582031 C 252.441406 120.410156 250.832031 123.984375 248.519531 127.195312 C 244.894531 132.234375 242.734375 137.863281 241.367188 143.855469 C 240.628906 147.089844 239.914062 150.328125 239.097656 153.542969 C 238.660156 155.289062 238.03125 156.980469 237.367188 159.0625 C 235.550781 157.429688 233.988281 156.089844 232.496094 154.679688 C 230.628906 152.917969 228.875 151.039062 226.964844 149.332031 C 225.316406 147.859375 223.589844 146.457031 221.773438 145.195312 C 219.171875 143.382812 217.015625 141.171875 215.1875 138.613281 C 214.121094 137.128906 213.273438 135.554688 212.960938 133.710938 C 212.792969 132.878906 212.398438 132.09375 212.128906 131.285156 Z M 186.972656 185.089844 C 187.367188 182.816406 187.8125 180.546875 188.316406 178.289062 C 188.972656 175.292969 189.707031 172.3125 190.402344 169.328125 C 190.597656 168.492188 190.710938 167.636719 190.992188 166.832031 C 192.296875 163.171875 192.816406 159.316406 193.90625 155.605469 C 194.769531 152.667969 195.910156 149.867188 197.621094 147.25 C 199.144531 144.914062 200.832031 142.632812 201.714844 139.886719 C 202.4375 137.644531 203.695312 135.648438 205.292969 133.875 C 204.535156 136.882812 203.441406 139.730469 202.054688 142.460938 C 200.097656 146.316406 198.105469 150.160156 196.195312 154.039062 C 195.804688 154.824219 195.609375 155.757812 195.542969 156.636719 C 195.191406 161.054688 194.695312 165.460938 193.523438 169.742188 C 192.996094 171.671875 192.125 173.503906 191.449219 175.394531 C 189.96875 179.5 188.507812 183.613281 186.839844 187.699219 C 186.875 186.828125 186.824219 185.945312 186.972656 185.089844 Z M 187.644531 189.015625 C 189.285156 185.074219 190.695312 181.035156 192.226562 177.050781 C 192.476562 176.398438 192.808594 175.785156 193.105469 175.152344 C 193.179688 175.175781 193.253906 175.207031 193.328125 175.230469 C 193.296875 175.578125 193.285156 175.914062 193.234375 176.261719 C 192.941406 178.453125 192.558594 180.636719 192.359375 182.839844 C 192.0625 185.988281 191.1875 188.945312 189.894531 191.8125 C 188.664062 194.550781 188.0625 197.472656 187.8125 200.429688 C 187.25 207.042969 186.289062 213.625 186.316406 220.28125 C 186.339844 227.242188 184.347656 233.664062 181.039062 239.71875 C 180.976562 239.832031 180.855469 239.910156 180.636719 240.144531 C 180.613281 239.761719 180.59375 239.523438 180.585938 239.292969 C 180.535156 238.136719 180.628906 236.953125 180.421875 235.832031 C 179.808594 232.554688 180.242188 229.332031 180.648438 226.078125 C 181.394531 220.140625 181.972656 214.1875 182.628906 208.238281 C 182.75 207.191406 182.804688 206.121094 183.074219 205.105469 C 184.523438 199.722656 185.480469 194.207031 187.644531 189.015625 Z M 185.035156 165.75 C 184.492188 168.976562 183.601562 172.109375 182.492188 175.195312 C 182.054688 176.417969 181.613281 177.671875 181.414062 178.949219 C 180.925781 182.109375 179.984375 185.109375 178.625 187.988281 C 178.027344 189.253906 177.371094 190.488281 176.707031 191.722656 C 176.363281 192.363281 175.804688 192.539062 175.0625 192.5 C 173.617188 192.425781 172.164062 192.460938 170.53125 192.449219 C 171.609375 190.101562 172.632812 187.867188 173.648438 185.636719 C 175.886719 180.746094 177.929688 175.785156 179.785156 170.730469 C 180.34375 169.222656 181.550781 167.960938 182.441406 166.574219 C 183.070312 165.605469 183.972656 165.027344 185.136719 164.527344 C 185.105469 165.003906 185.097656 165.378906 185.035156 165.75 Z M 187.984375 134.765625 C 190.683594 133.855469 193.277344 132.609375 196.207031 131.394531 C 196.050781 131.96875 196.011719 132.234375 195.90625 132.464844 C 194.738281 134.859375 193.273438 137.152344 192.457031 139.660156 C 191.359375 143.035156 189.046875 145.765625 187.984375 149.125 C 187.425781 150.894531 186.816406 152.617188 186.503906 154.480469 C 186.113281 156.796875 185.394531 159.066406 184.75 161.335938 C 184.527344 162.09375 184.164062 162.789062 183.242188 163.085938 C 182.835938 163.210938 182.53125 163.75 182.242188 164.144531 C 181.746094 164.828125 181.300781 165.546875 180.335938 165.855469 C 180.265625 165.492188 180.160156 165.164062 180.140625 164.832031 C 179.933594 160.613281 179.734375 156.390625 179.550781 152.171875 C 179.535156 151.671875 179.609375 151.167969 179.660156 150.667969 C 179.871094 148.523438 179.597656 146.46875 178.707031 144.480469 C 177.585938 141.96875 177.710938 141.464844 179.785156 139.734375 C 182.253906 137.65625 184.847656 135.824219 187.984375 134.765625 Z M 215.394531 93.289062 C 215.917969 93.152344 216.425781 92.953125 217.058594 92.746094 C 217.011719 94.046875 216.359375 94.964844 215.945312 95.960938 C 215.730469 96.46875 215.457031 96.949219 215.230469 97.457031 C 215.148438 97.632812 215.035156 97.929688 215.109375 98.023438 C 216.234375 99.332031 215.15625 100.378906 214.640625 101.402344 C 213 104.703125 210.953125 107.730469 208.398438 110.425781 C 204.378906 114.671875 200.269531 118.800781 195.722656 122.488281 C 194.863281 123.183594 194 123.871094 193.171875 124.605469 C 189.957031 127.464844 186.152344 129.28125 182.203125 130.835938 C 180.109375 131.664062 178.011719 132.460938 175.960938 133.253906 C 174.984375 131.300781 174.011719 129.539062 173.203125 127.707031 C 172 124.988281 169.867188 122.933594 168.246094 120.519531 C 167.613281 119.570312 167.078125 118.558594 166.433594 117.460938 C 167.152344 117.304688 167.6875 117.164062 168.226562 117.070312 C 171.894531 116.464844 175.152344 114.925781 178.023438 112.621094 C 183.511719 108.207031 188.964844 103.75 194.414062 99.28125 C 196.082031 97.917969 197.910156 96.882812 200.03125 96.480469 C 203.09375 95.890625 206.183594 95.441406 209.25 94.824219 C 211.320312 94.414062 213.347656 93.816406 215.394531 93.289062 Z M 199.238281 94.664062 C 198.976562 94.8125 198.777344 94.96875 198.550781 95.046875 C 196.832031 95.585938 195.402344 96.570312 194.019531 97.691406 C 190.425781 100.605469 186.824219 103.511719 183.148438 106.320312 C 180.035156 108.703125 176.832031 110.984375 173.621094 113.234375 C 172.644531 113.917969 171.546875 114.519531 170.414062 114.890625 C 166.722656 116.097656 162.972656 117.132812 159.066406 117.257812 C 155.695312 117.367188 152.324219 117.339844 148.945312 117.339844 C 146.726562 117.339844 144.515625 117.234375 142.296875 117.277344 C 139.40625 117.335938 136.558594 117.109375 133.75 116.4375 C 130.265625 115.597656 126.769531 114.902344 123.160156 114.910156 C 123.019531 114.910156 122.882812 114.832031 122.511719 114.734375 C 124.820312 113.308594 126.976562 111.976562 129.296875 110.546875 C 129.070312 111.503906 128.875 112.34375 128.679688 113.191406 C 128.757812 113.222656 128.832031 113.253906 128.898438 113.277344 C 129.113281 112.828125 129.40625 112.402344 129.535156 111.925781 C 129.996094 110.101562 131.085938 108.726562 132.390625 107.40625 C 134.96875 104.796875 137.953125 102.78125 141.097656 100.957031 C 141.304688 100.835938 141.550781 100.773438 142.144531 100.535156 C 141.554688 101.695312 141.203125 102.617188 140.660156 103.414062 C 139.699219 104.8125 139.078125 106.308594 138.828125 107.988281 C 138.714844 108.765625 138.453125 109.519531 138.507812 110.363281 C 138.816406 109.4375 139.1875 108.527344 139.40625 107.585938 C 139.699219 106.339844 140.175781 105.210938 140.921875 104.164062 C 141.386719 103.511719 141.761719 102.792969 142.132812 102.085938 C 142.882812 100.667969 143.898438 99.546875 145.359375 98.820312 C 148.621094 97.195312 151.910156 95.679688 155.550781 95.171875 C 156.988281 94.96875 158.441406 94.945312 159.984375 95.03125 C 159.683594 95.226562 159.40625 95.472656 159.085938 95.617188 C 156.625 96.757812 154.988281 98.644531 154.015625 101.144531 C 153.300781 102.96875 152.5625 104.785156 151.867188 106.617188 C 151.664062 107.148438 151.570312 107.726562 151.683594 108.359375 C 151.984375 107.574219 152.265625 106.785156 152.59375 106.015625 C 153.375 104.160156 154.128906 102.296875 154.980469 100.480469 C 155.703125 98.945312 156.824219 97.714844 158.347656 96.914062 C 159.464844 96.332031 160.585938 95.753906 161.738281 95.257812 C 163.222656 94.617188 164.753906 94.199219 166.414062 94.199219 C 170.796875 94.207031 175.175781 94.117188 179.558594 94.078125 C 179.902344 94.074219 180.253906 94.125 180.605469 94.148438 C 180.628906 94.238281 180.65625 94.324219 180.679688 94.414062 C 179.734375 94.726562 178.789062 95.046875 177.839844 95.339844 C 176.5 95.761719 175.445312 96.539062 174.613281 97.691406 C 173.164062 99.683594 171.671875 101.640625 170.800781 104.191406 C 171.148438 103.8125 171.402344 103.574219 171.605469 103.300781 C 171.835938 102.972656 171.992188 102.59375 172.230469 102.265625 C 173.523438 100.535156 174.808594 98.804688 176.140625 97.113281 C 176.40625 96.78125 176.863281 96.542969 177.269531 96.386719 C 178.917969 95.761719 180.574219 95.152344 182.242188 94.59375 C 182.753906 94.425781 183.324219 94.367188 183.871094 94.375 C 188.949219 94.457031 194.03125 94.5625 199.238281 94.664062 Z M 146.527344 90.941406 C 150.105469 89.992188 153.722656 89.453125 157.417969 89.449219 C 159.230469 89.441406 161.050781 89.367188 162.855469 89.246094 C 167.511719 88.941406 172.097656 89.460938 176.699219 90.105469 C 182.285156 90.890625 187.855469 91.75 193.511719 91.96875 C 195.597656 92.050781 197.679688 92.351562 199.765625 92.550781 C 199.753906 92.675781 199.742188 92.800781 199.734375 92.925781 C 199.132812 92.953125 198.539062 93.007812 197.9375 92.996094 C 192.09375 92.859375 186.257812 92.636719 180.417969 92.59375 C 178.253906 92.574219 176.242188 92.136719 174.222656 91.480469 C 173.109375 91.117188 171.960938 90.808594 170.789062 90.695312 C 170.757812 90.816406 170.726562 90.933594 170.695312 91.050781 C 172.035156 91.535156 173.378906 92.019531 174.714844 92.496094 C 174.699219 92.5625 174.6875 92.625 174.667969 92.695312 C 174.335938 92.734375 174.003906 92.800781 173.667969 92.808594 C 169.027344 92.859375 164.402344 93.132812 159.8125 93.828125 C 157.519531 94.175781 155.320312 94.015625 153.125 93.226562 C 151.878906 92.777344 150.582031 92.40625 149.234375 92.363281 C 149.203125 92.46875 149.171875 92.570312 149.140625 92.675781 C 150.730469 93.214844 152.324219 93.746094 154.054688 94.335938 C 150.808594 95.640625 147.796875 96.917969 144.738281 98.054688 C 142.332031 98.949219 139.855469 99.652344 137.238281 99.570312 C 136.734375 99.558594 136.234375 99.589844 135.726562 99.683594 C 137.160156 100.253906 138.695312 100.007812 140.457031 100.140625 C 139.242188 100.90625 138.191406 101.464844 137.25 102.171875 C 135.363281 103.589844 133.382812 104.9375 131.707031 106.578125 C 128.917969 109.316406 125.617188 111.121094 121.824219 112.816406 C 122.144531 112.269531 122.3125 111.945312 122.519531 111.644531 C 124.457031 108.929688 126.65625 106.464844 129.082031 104.164062 C 131.785156 101.609375 134.234375 98.773438 136.953125 96.242188 C 139.695312 93.691406 142.882812 91.90625 146.527344 90.941406 Z M 48.28125 191.699219 C 46.6875 191.496094 45.097656 191.277344 43.511719 191.058594 C 42.734375 190.953125 41.96875 190.808594 40.972656 190.652344 C 42.03125 188.828125 43.058594 187.328125 44.589844 186.246094 C 45.023438 185.9375 45.460938 185.605469 46.105469 185.835938 C 47.792969 186.445312 49.503906 186.992188 51.558594 187.6875 C 50.0625 188.152344 48.808594 188.546875 47.554688 188.933594 C 47.574219 189.027344 47.589844 189.128906 47.617188 189.222656 C 48.667969 189.097656 49.722656 188.972656 50.894531 188.832031 C 50.457031 189.679688 50.0625 190.402344 49.703125 191.140625 C 49.390625 191.773438 48.839844 191.765625 48.28125 191.699219 Z M 56.503906 208.796875 C 56.417969 207.96875 56.347656 207.285156 56.265625 206.464844 C 57.363281 206.238281 58.371094 206.03125 59.53125 205.792969 C 59.433594 206.328125 59.355469 206.746094 59.21875 207.46875 C 59.683594 207.0625 59.921875 206.847656 60.285156 206.527344 C 60.273438 206.859375 60.351562 207.1875 60.246094 207.269531 C 59.207031 208.078125 58.023438 208.554688 56.503906 208.796875 Z M 96.75 209.710938 C 94.878906 208.652344 93.160156 207.304688 91.378906 206.078125 C 87.457031 203.371094 84.015625 200.128906 80.976562 196.480469 C 78.851562 193.929688 76.90625 191.234375 74.875 188.609375 C 74.550781 188.195312 74.167969 187.824219 73.8125 187.429688 C 73.660156 187.5 73.503906 187.566406 73.351562 187.636719 C 73.445312 188.238281 73.535156 188.847656 73.648438 189.574219 C 72.796875 190.167969 71.867188 190.820312 70.933594 191.472656 L 71.089844 191.742188 C 72.085938 191.253906 73.082031 190.765625 74.179688 190.230469 C 74.382812 190.558594 74.574219 190.878906 74.78125 191.214844 C 73.960938 192.289062 72.941406 193.007812 71.824219 193.585938 C 68.945312 195.078125 67.867188 197.890625 66.632812 200.585938 C 66.535156 200.804688 66.496094 201.101562 66.550781 201.324219 C 66.621094 201.589844 66.785156 201.953125 66.984375 202.015625 C 67.183594 202.078125 67.582031 201.890625 67.722656 201.6875 C 68.300781 200.875 68.816406 200.007812 69.523438 198.894531 C 69.566406 199.453125 69.617188 199.714844 69.605469 199.972656 C 69.546875 201.226562 69.4375 202.472656 69.417969 203.726562 C 69.378906 205.9375 69.410156 208.15625 69.378906 210.371094 C 69.328125 213.335938 68.0625 215.585938 65.417969 217.015625 C 64.847656 217.320312 64.289062 217.667969 63.5625 218.085938 C 63.613281 217.714844 63.617188 217.503906 63.683594 217.304688 C 63.75 217.089844 63.871094 216.890625 63.851562 216.621094 C 62.953125 217.503906 62.058594 218.386719 61.160156 219.269531 C 61.085938 219.214844 61.011719 219.160156 60.929688 219.09375 C 60.992188 218.761719 61.023438 218.417969 61.113281 218.097656 C 61.589844 216.367188 61.5625 214.632812 61.355469 212.859375 C 61.042969 210.132812 61.417969 207.523438 62.347656 204.886719 C 63.105469 202.742188 64.089844 200.722656 64.964844 198.648438 C 65.09375 198.359375 65.136719 198.035156 65.085938 197.664062 C 63.75 199.039062 62.523438 200.480469 61.613281 202.132812 C 60.78125 203.652344 59.539062 204.566406 57.960938 205.054688 C 57.101562 205.320312 56.191406 205.46875 55.289062 205.542969 C 52.988281 205.75 50.683594 205.890625 48.175781 206.0625 C 48.734375 205.519531 49.171875 205.09375 49.609375 204.660156 C 49.566406 204.585938 49.523438 204.511719 49.476562 204.441406 C 48.550781 204.921875 47.621094 205.40625 46.449219 206.015625 C 46.714844 205.445312 46.828125 205.125 46.996094 204.835938 C 48.054688 203.011719 48.355469 201.132812 47.84375 199.03125 C 47.296875 196.8125 48.40625 194.902344 49.472656 193.082031 C 50.550781 191.246094 52.191406 189.925781 53.757812 188.496094 C 55.039062 187.328125 56.441406 186.683594 57.925781 186.019531 C 58.597656 185.71875 59.226562 185.328125 59.871094 184.984375 C 59.832031 184.835938 59.800781 184.691406 59.765625 184.539062 C 59.46875 184.664062 59.179688 184.828125 58.867188 184.917969 C 57.558594 185.28125 56.242188 185.628906 54.925781 185.96875 C 53.679688 186.289062 52.460938 186.289062 51.234375 185.761719 C 50.269531 185.347656 49.175781 185.222656 48.21875 184.796875 C 45.324219 183.519531 42.425781 182.222656 39.59375 180.816406 C 37.253906 179.65625 35.003906 178.328125 32.628906 177.03125 C 33.847656 176.484375 35.105469 176.703125 36.371094 176.433594 C 35.363281 176.277344 34.347656 176.121094 33.148438 175.933594 C 33.578125 175.675781 33.871094 175.4375 34.210938 175.308594 C 36.183594 174.550781 38.171875 173.828125 40.152344 173.074219 C 43.027344 171.972656 45.800781 171.777344 48.496094 173.660156 C 50.136719 174.800781 51.898438 175.765625 53.773438 176.90625 C 52.882812 177.132812 52.15625 177.320312 51.421875 177.507812 C 51.421875 177.644531 51.421875 177.78125 51.421875 177.925781 C 51.761719 178.015625 52.109375 178.203125 52.429688 178.164062 C 53.886719 178.007812 55.332031 177.828125 56.769531 177.570312 C 58.304688 177.292969 59.84375 177.011719 61.335938 176.566406 C 62.421875 176.242188 63.417969 175.652344 64.523438 175.144531 C 64.652344 175.519531 64.824219 175.992188 65.03125 176.5625 C 64.070312 177.179688 63.136719 177.78125 62.203125 178.386719 C 62.257812 178.492188 62.320312 178.597656 62.378906 178.703125 C 63.332031 178.304688 64.289062 177.902344 65.316406 177.46875 C 65.5625 177.859375 65.789062 178.226562 66.074219 178.6875 C 65.378906 179.207031 64.726562 179.695312 63.894531 180.308594 C 65.136719 180.554688 65.933594 179.933594 66.839844 179.625 C 67.5 180.410156 67.96875 181.375 69.242188 181.96875 C 69.070312 181.386719 69.023438 181.113281 68.910156 180.867188 C 68.21875 179.355469 67.488281 177.871094 66.835938 176.347656 C 65.980469 174.359375 65.1875 172.34375 64.371094 170.34375 C 62.929688 166.8125 62.328125 163.097656 61.820312 159.34375 C 61.21875 154.9375 60.847656 150.546875 61.238281 146.097656 C 61.828125 139.449219 63.355469 133.109375 66.753906 127.289062 C 67.792969 125.507812 68.703125 123.652344 69.578125 121.785156 C 70.890625 118.988281 72.46875 116.371094 74.355469 113.929688 C 76.140625 111.625 77.886719 109.28125 79.765625 107.0625 C 80.960938 105.644531 82.386719 104.398438 84.070312 103.550781 C 86.367188 102.398438 88.683594 101.300781 90.992188 100.191406 C 91.675781 99.867188 92.371094 99.570312 93.054688 99.257812 C 93.554688 99.027344 94.039062 98.738281 94.558594 98.554688 C 100.832031 96.34375 107.148438 94.28125 113.792969 93.503906 C 114.628906 93.402344 115.5 93.554688 116.339844 93.671875 C 121.566406 94.445312 126.792969 95.238281 132.023438 96.03125 C 132.59375 96.117188 133.15625 96.242188 133.964844 96.398438 C 132.417969 98.15625 131.070312 99.703125 129.703125 101.238281 C 126.1875 105.191406 122.734375 109.191406 119.9375 113.710938 C 119.546875 114.339844 118.992188 114.878906 118.453125 115.390625 C 118.089844 115.742188 117.863281 116.082031 118.050781 116.574219 C 118.277344 117.183594 118.769531 117.175781 119.304688 117.101562 C 123.234375 116.558594 127.152344 116.71875 131.03125 117.472656 C 135.300781 118.300781 139.582031 118.738281 143.945312 118.636719 C 148.367188 118.539062 152.804688 118.730469 157.238281 118.65625 C 159.59375 118.621094 161.9375 118.28125 164.453125 118.0625 C 164.777344 118.558594 165.179688 119.191406 165.605469 119.804688 C 166.808594 121.535156 167.976562 123.300781 169.253906 124.976562 C 171.035156 127.308594 172.695312 129.707031 173.683594 132.484375 C 174.574219 134.980469 175.339844 137.523438 176.109375 140.0625 C 176.3125 140.71875 176.273438 141.449219 176.429688 142.125 C 176.78125 143.640625 177.308594 145.125 177.535156 146.664062 C 177.941406 149.394531 178.335938 152.148438 178.460938 154.898438 C 178.660156 159.265625 178.710938 163.65625 178.660156 168.03125 C 178.644531 169.558594 178.234375 171.109375 177.855469 172.613281 C 176.726562 177.039062 174.695312 181.078125 172.480469 185.042969 C 171.328125 187.105469 170.230469 189.210938 168.972656 191.210938 C 167.359375 193.777344 165.398438 196.09375 163.085938 198.054688 C 161.40625 199.484375 159.582031 200.75 157.785156 202.039062 C 156.71875 202.796875 155.566406 203.433594 154.488281 204.171875 C 149.546875 207.539062 144.042969 209.800781 138.628906 212.226562 C 138.125 212.453125 137.574219 212.582031 137.035156 212.671875 C 132.660156 213.371094 128.28125 214.019531 123.84375 214.289062 C 121.535156 214.425781 119.246094 214.902344 116.941406 215.003906 C 115.148438 215.085938 113.3125 214.972656 111.539062 214.671875 C 106.378906 213.800781 101.359375 212.320312 96.75 209.710938 Z M 73.710938 238.910156 C 77.082031 235.355469 79.964844 231.414062 82.847656 227.46875 C 84.8125 224.785156 86.703125 222.054688 88.722656 219.414062 C 89.378906 218.554688 90.25 217.792969 91.179688 217.234375 C 93.378906 215.910156 95.648438 214.703125 97.929688 213.523438 C 98.414062 213.273438 99.140625 213.140625 99.621094 213.316406 C 102.480469 214.355469 105.421875 214.996094 108.441406 215.308594 C 108.929688 215.359375 109.40625 215.515625 109.890625 215.625 C 107.582031 216.019531 105.726562 217.277344 104.140625 218.832031 C 102.210938 220.726562 100.042969 220.6875 97.703125 220.136719 C 96.386719 219.824219 95.085938 219.453125 93.769531 219.132812 C 93.585938 219.089844 93.375 219.152344 92.898438 219.183594 C 94.445312 219.660156 95.722656 220.09375 97.027344 220.441406 C 98.363281 220.808594 99.722656 221.089844 101.195312 221.441406 C 100.355469 222.128906 99.535156 222.851562 98.667969 223.515625 C 96.832031 224.917969 94.953125 226.273438 93.128906 227.695312 C 90.867188 229.46875 88.433594 230.402344 85.539062 229.527344 C 85.097656 229.394531 84.625 229.40625 84.140625 229.496094 C 85.632812 230.269531 87.21875 230.609375 89.1875 230.609375 C 88.183594 231.332031 87.394531 231.84375 86.660156 232.425781 C 84.894531 233.839844 83.144531 235.273438 81.394531 236.703125 C 80.035156 237.8125 78.492188 238.261719 76.75 238.074219 C 76.554688 238.054688 76.355469 238.09375 76.125 238.257812 C 76.613281 238.414062 77.101562 238.570312 77.757812 238.785156 C 75.472656 240.375 73.175781 241.679688 70.519531 242.4375 C 71.59375 241.265625 72.621094 240.054688 73.710938 238.910156 Z M 105.375 230.640625 C 104.6875 231.054688 103.992188 231.46875 103.265625 231.808594 C 99.921875 233.363281 96.738281 235.1875 93.773438 237.378906 C 91.566406 239.007812 89.148438 240.21875 86.542969 241.066406 C 82.132812 242.507812 77.703125 243.867188 73.078125 244.417969 C 72.5 244.488281 71.917969 244.511719 71.339844 244.554688 C 71.324219 244.476562 71.296875 244.386719 71.277344 244.304688 C 74.113281 242.636719 76.945312 240.964844 80.117188 239.097656 C 79.664062 240.238281 79.351562 241.035156 79.03125 241.835938 C 79.070312 241.867188 79.105469 241.898438 79.144531 241.9375 C 79.402344 241.589844 79.714844 241.273438 79.902344 240.890625 C 80.667969 239.335938 81.59375 237.945312 83.085938 236.960938 C 83.75 236.519531 84.335938 235.9375 84.894531 235.367188 C 86.621094 233.585938 88.683594 232.269531 90.890625 230.972656 C 90.609375 232.890625 90.339844 234.703125 90.078125 236.515625 L 90.378906 236.578125 C 90.496094 236.121094 90.648438 235.660156 90.734375 235.199219 C 90.871094 234.457031 90.941406 233.699219 91.097656 232.964844 C 91.441406 231.363281 92.101562 229.996094 93.5 228.941406 C 95.867188 227.164062 98.113281 225.226562 100.417969 223.363281 C 100.726562 223.113281 101.078125 222.925781 101.546875 222.617188 C 101.648438 224.511719 101.984375 226.292969 100.984375 227.972656 C 101.953125 227.273438 102.261719 226.273438 102.253906 225.164062 C 102.242188 221.195312 102.632812 221.917969 105.101562 220.105469 C 106.109375 219.359375 107.144531 218.601562 108.273438 218.074219 C 109.394531 217.546875 110.621094 217.164062 111.851562 216.976562 C 113.636719 216.703125 115.460938 216.65625 117.265625 216.519531 C 117.460938 216.507812 117.65625 216.542969 118.089844 216.574219 C 117.074219 218.523438 116.597656 220.636719 115.15625 222.171875 C 112.191406 225.320312 109.136719 228.398438 105.375 230.640625 Z M 118.40625 274.578125 C 118.199219 273.757812 117.855469 272.957031 117.484375 272.1875 C 116.136719 269.359375 115.160156 266.414062 114.363281 263.386719 C 113.824219 261.347656 113.105469 259.34375 112.308594 257.394531 C 111.082031 254.382812 110.78125 251.238281 110.78125 248.058594 C 110.78125 246.625 111.257812 245.195312 111.527344 243.761719 C 111.5625 243.566406 111.65625 243.378906 111.699219 243.183594 C 112.585938 239.109375 113.460938 235.035156 114.347656 230.960938 C 114.558594 229.976562 114.703125 228.972656 115.023438 228.027344 C 115.695312 226.027344 116.433594 224.046875 117.199219 222.078125 C 117.675781 220.863281 118.230469 219.714844 119.421875 218.945312 C 120.117188 218.492188 120.671875 217.773438 121.179688 217.097656 C 121.71875 216.382812 122.355469 216.136719 123.226562 216.09375 C 127 215.917969 130.742188 215.515625 134.460938 214.71875 C 138.554688 213.84375 142.277344 212.136719 145.988281 210.339844 C 148.292969 209.21875 150.554688 207.988281 152.886719 206.929688 C 154.71875 206.101562 156.117188 204.722656 157.6875 203.5625 C 158.617188 202.878906 159.527344 202.148438 160.511719 201.558594 C 162.765625 200.199219 164.785156 198.585938 166.660156 196.726562 C 168.929688 194.476562 171.734375 193.636719 174.9375 194.300781 C 175.617188 194.4375 176.324219 194.378906 177.019531 194.4375 C 177.820312 194.5 178.625 194.574219 179.421875 194.683594 C 180.90625 194.875 182.386719 195.101562 183.976562 195.328125 C 183.230469 197.789062 182.566406 200.109375 181.828125 202.402344 C 181.105469 204.628906 180.742188 206.890625 180.648438 209.222656 C 180.390625 215.917969 179.835938 222.585938 178.949219 229.226562 C 178.699219 231.105469 178.636719 233.046875 178.789062 234.933594 C 179.265625 240.914062 177.996094 246.4375 174.757812 251.488281 C 174.652344 251.65625 174.449219 251.820312 174.445312 251.996094 C 174.429688 252.417969 174.363281 252.992188 174.59375 253.210938 C 174.832031 253.445312 175.441406 253.449219 175.816406 253.332031 C 176.222656 253.207031 176.574219 252.847656 176.902344 252.542969 C 180.003906 249.652344 183.480469 247.25 186.929688 244.792969 C 191.292969 241.683594 195.378906 238.28125 198.386719 233.757812 C 199.335938 232.332031 200.554688 231.09375 201.457031 229.652344 C 203.777344 225.933594 205.789062 222.042969 207.308594 217.917969 C 208.214844 215.449219 209.539062 213.199219 210.90625 210.804688 C 211.457031 211.210938 212 211.484375 212.382812 211.90625 C 215.359375 215.253906 218.28125 218.652344 220.519531 222.566406 C 222.445312 225.941406 223.410156 229.636719 224.242188 233.378906 C 224.871094 236.183594 225.589844 238.984375 225.910156 241.824219 C 226.171875 244.148438 226.03125 246.550781 225.828125 248.894531 C 225.484375 252.9375 224.15625 256.753906 222.839844 260.558594 C 222.363281 261.9375 221.96875 263.339844 221.449219 264.707031 C 220.632812 266.871094 219.824219 269.039062 218.871094 271.140625 C 217.875 273.332031 216.765625 275.484375 215.605469 277.59375 C 214.929688 278.824219 214.09375 279.976562 212.699219 280.539062 C 212.652344 280.558594 212.617188 280.597656 212.578125 280.636719 C 209.894531 283.355469 206.359375 284.882812 203.382812 287.203125 C 202.117188 288.1875 200.71875 289.007812 199.335938 289.832031 C 198.082031 290.574219 196.765625 291.195312 195.761719 292.3125 C 195.402344 292.707031 194.890625 293.007812 194.386719 293.226562 C 190.613281 294.90625 186.855469 296.605469 183.042969 298.179688 C 181.902344 298.648438 180.613281 298.761719 179.375 298.980469 C 175.101562 299.738281 170.75 299.5 166.445312 299.878906 C 163.074219 300.171875 159.765625 299.820312 156.40625 299.226562 C 149.652344 298.035156 142.972656 296.597656 136.414062 294.59375 C 133.582031 293.730469 131.070312 292.269531 129.03125 290.0625 C 126.917969 287.773438 124.457031 285.804688 122.707031 283.1875 C 120.941406 280.472656 119.203125 277.769531 118.40625 274.578125 Z M 118.40625 274.578125 "/></g><path style=" stroke:none;fill-rule:nonzero;fill:#722127;fill-opacity:1;" d="M 126.128906 99.167969 C 125.667969 99.945312 125.078125 99.898438 124.5625 99.902344 C 123.304688 99.921875 122.050781 99.851562 120.789062 99.859375 C 118.226562 99.867188 115.648438 99.789062 113.097656 99.945312 C 108.832031 100.210938 104.78125 101.46875 100.875 103.132812 C 96.195312 105.117188 91.660156 107.398438 87.511719 110.394531 C 80.863281 115.191406 76.136719 121.433594 73.277344 129.074219 C 72.226562 131.894531 71.472656 134.828125 70.558594 137.699219 C 69.90625 139.742188 69.210938 141.78125 68.3125 143.765625 C 68.402344 143.335938 68.453125 142.890625 68.582031 142.46875 C 70.351562 136.859375 72.042969 131.230469 73.929688 125.664062 C 75.503906 121.007812 78.265625 117.058594 81.785156 113.640625 C 82.605469 112.847656 83.570312 112.167969 84.542969 111.554688 C 88.621094 108.980469 92.746094 106.464844 96.832031 103.890625 C 100.53125 101.558594 104.613281 100.328125 108.898438 99.808594 C 111.796875 99.457031 114.714844 99.308594 117.628906 99.132812 C 119.636719 99.011719 121.65625 98.980469 123.667969 98.960938 C 124.429688 98.957031 125.203125 99.089844 126.128906 99.167969 Z M 126.128906 99.167969 "/><path style=" stroke:none;fill-rule:nonzero;fill:#722127;fill-opacity:1;" d="M 151.859375 195.359375 C 153.082031 194.425781 154.253906 193.402344 155.546875 192.582031 C 160.050781 189.710938 162.90625 185.542969 165.148438 180.828125 C 166.296875 178.421875 167.730469 176.160156 168.871094 173.746094 C 170.644531 169.992188 171.886719 166.0625 172.03125 161.867188 C 172.15625 158.195312 172.230469 154.523438 172.335938 150.847656 C 172.351562 150.328125 172.425781 149.816406 172.476562 149.296875 C 172.589844 149.277344 172.707031 149.257812 172.820312 149.246094 C 172.972656 149.507812 173.226562 149.765625 173.253906 150.039062 C 173.335938 150.835938 173.378906 151.652344 173.335938 152.449219 C 173.160156 155.761719 173.003906 159.085938 172.738281 162.394531 C 172.382812 166.957031 171.160156 171.316406 169.128906 175.40625 C 167.542969 178.605469 165.882812 181.78125 164.015625 184.816406 C 162.183594 187.785156 159.800781 190.3125 156.800781 192.21875 C 155.15625 193.265625 153.601562 194.449219 152.011719 195.578125 C 151.964844 195.503906 151.910156 195.425781 151.859375 195.359375 Z M 151.859375 195.359375 "/><path style=" stroke:none;fill-rule:nonzero;fill:#722127;fill-opacity:1;" d="M 138.09375 206.753906 C 137.429688 206.890625 136.773438 207.074219 136.101562 207.148438 C 130.347656 207.792969 124.601562 208.566406 118.832031 209.015625 C 113.789062 209.417969 108.910156 208.597656 104.410156 206.03125 C 101.703125 204.496094 98.902344 203.132812 96.148438 201.664062 C 95.671875 201.40625 95.265625 201.023438 94.734375 200.636719 C 98.394531 202.449219 101.941406 204.175781 105.464844 205.964844 C 107.28125 206.886719 109.167969 207.492188 111.175781 207.824219 C 116.101562 208.648438 121.007812 208.441406 125.921875 207.769531 C 129.515625 207.273438 133.113281 206.816406 136.710938 206.351562 C 137.144531 206.296875 137.582031 206.308594 138.019531 206.289062 C 138.046875 206.445312 138.070312 206.601562 138.09375 206.753906 Z M 138.09375 206.753906 "/><path style=" stroke:none;fill-rule:nonzero;fill:#722127;fill-opacity:1;" d="M 77.824219 132.265625 C 78.867188 129.664062 79.839844 127.03125 80.988281 124.480469 C 82.523438 121.058594 85.074219 118.425781 87.9375 116.074219 C 88.949219 115.246094 90.03125 114.515625 91.109375 113.773438 C 91.585938 113.449219 92.105469 113.101562 92.910156 113.441406 C 92.691406 113.785156 92.578125 114.117188 92.339844 114.308594 C 91.675781 114.839844 91.003906 115.390625 90.265625 115.804688 C 85.53125 118.4375 82.347656 122.363281 80.417969 127.375 C 79.910156 128.6875 79.300781 129.953125 78.71875 131.230469 C 78.535156 131.632812 78.285156 132.007812 78.074219 132.394531 C 77.984375 132.347656 77.902344 132.300781 77.824219 132.265625 Z M 77.824219 132.265625 "/><path style=" stroke:none;fill-rule:nonzero;fill:#722127;fill-opacity:1;" d="M 68.992188 154.835938 C 69.066406 155.675781 69.152344 156.523438 69.210938 157.363281 C 69.371094 159.824219 69.410156 162.300781 69.707031 164.746094 C 70.164062 168.519531 71.242188 172.136719 73.195312 175.4375 C 74.476562 177.59375 75.792969 179.734375 76.996094 181.996094 C 76.777344 181.789062 76.511719 181.605469 76.34375 181.363281 C 75.308594 179.875 74.324219 178.351562 73.277344 176.875 C 70.609375 173.09375 69.40625 168.84375 69.078125 164.289062 C 68.890625 161.625 68.691406 158.964844 68.507812 156.308594 C 68.476562 155.832031 68.527344 155.351562 68.539062 154.867188 C 68.691406 154.859375 68.839844 154.847656 68.992188 154.835938 Z M 68.992188 154.835938 "/><path style=" stroke:none;fill-rule:nonzero;fill:#722127;fill-opacity:1;" d="M 158.960938 178.429688 C 160.527344 174.574219 163 171.078125 163.5 166.789062 C 164.285156 168.144531 164.070312 169.464844 163.53125 170.699219 C 162.816406 172.355469 161.976562 173.964844 161.125 175.558594 C 160.558594 176.617188 159.875 177.609375 159.242188 178.628906 C 159.148438 178.558594 159.054688 178.492188 158.960938 178.429688 Z M 158.960938 178.429688 "/><path style=" stroke:none;fill-rule:nonzero;fill:#722127;fill-opacity:1;" d="M 116.851562 202.597656 C 112.960938 203.230469 109.519531 201.808594 106.167969 199.984375 C 107.964844 200.453125 109.75 201 111.570312 201.375 C 113.335938 201.738281 115.148438 201.914062 116.941406 202.179688 C 116.910156 202.308594 116.882812 202.453125 116.851562 202.597656 Z M 116.851562 202.597656 "/><path style=" stroke:none;fill-rule:nonzero;fill:#722127;fill-opacity:1;" d="M 63.761719 192.1875 C 66.601562 190.226562 69.386719 188.226562 72.539062 186.851562 C 71.875 187.980469 65.273438 191.941406 63.761719 192.1875 Z M 63.761719 192.1875 "/><path style=" stroke:none;fill-rule:nonzero;fill:#722127;fill-opacity:1;" d="M 77.078125 170.511719 C 75.097656 167.992188 73.824219 163.46875 74.550781 161.066406 C 75.183594 164.496094 75.808594 167.597656 77.078125 170.511719 Z M 77.078125 170.511719 "/><path style=" stroke:none;fill-rule:nonzero;fill:#722127;fill-opacity:1;" d="M 68.40625 181.84375 C 68.105469 183.1875 66.882812 184.058594 64.628906 184.664062 C 65.789062 183.375 66.878906 182.578125 68.40625 181.84375 Z M 68.40625 181.84375 "/><path style=" stroke:none;fill-rule:nonzero;fill:#722127;fill-opacity:1;" d="M 163.085938 126.308594 C 164.144531 127.707031 165.066406 129.167969 165.21875 131.324219 C 164.316406 129.519531 163.550781 127.988281 162.777344 126.453125 C 162.886719 126.410156 162.984375 126.359375 163.085938 126.308594 Z M 163.085938 126.308594 "/><path style=" stroke:none;fill-rule:nonzero;fill:#722127;fill-opacity:1;" d="M 220.179688 253.808594 C 219.140625 257.78125 218.324219 261.835938 217.011719 265.71875 C 215.386719 270.511719 212.765625 274.835938 209.449219 278.6875 C 208.640625 279.625 207.550781 280.328125 206.5625 281.09375 C 201.238281 285.191406 195.585938 288.753906 189.386719 291.390625 C 188.234375 291.878906 187.042969 292.300781 185.84375 292.6875 C 182.925781 293.640625 179.992188 294.554688 177.0625 295.484375 C 176.074219 295.796875 175.070312 295.992188 174.050781 295.898438 C 174.015625 295.785156 173.984375 295.664062 173.953125 295.554688 C 174.28125 295.414062 174.601562 295.238281 174.9375 295.140625 C 175.902344 294.855469 176.875 294.574219 177.855469 294.355469 C 183.621094 293.078125 188.886719 290.59375 194.03125 287.785156 C 195.753906 286.847656 197.527344 286.007812 199.269531 285.105469 C 204.109375 282.597656 208.117188 279.207031 210.898438 274.441406 C 212.015625 272.535156 213.300781 270.726562 214.566406 268.90625 C 216.03125 266.800781 216.746094 264.386719 217.460938 261.976562 C 218.074219 259.898438 218.578125 257.792969 219.148438 255.707031 C 219.328125 255.035156 219.566406 254.382812 219.78125 253.71875 C 219.910156 253.75 220.050781 253.78125 220.179688 253.808594 Z M 220.179688 253.808594 "/><path style=" stroke:none;fill-rule:nonzero;fill:#722127;fill-opacity:1;" d="M 156.328125 295.855469 C 155.152344 295.824219 153.972656 295.816406 152.792969 295.746094 C 149.660156 295.570312 146.589844 295.027344 143.617188 294.03125 C 141.472656 293.308594 139.347656 292.519531 137.242188 291.683594 C 133.847656 290.351562 131 288.25 128.71875 285.390625 C 125.121094 280.875 122.15625 275.996094 120.085938 270.59375 C 119.699219 269.585938 119.304688 268.582031 119.046875 267.507812 C 119.957031 268.242188 120.449219 269.238281 120.777344 270.261719 C 121.910156 273.804688 123.730469 277 125.765625 280.050781 C 128.316406 283.882812 131.199219 287.492188 135.355469 289.703125 C 139.996094 292.175781 144.863281 294.085938 150.136719 294.769531 C 151.382812 294.933594 152.636719 295.058594 153.882812 295.226562 C 154.707031 295.332031 155.527344 295.476562 156.347656 295.609375 C 156.347656 295.691406 156.335938 295.773438 156.328125 295.855469 Z M 156.328125 295.855469 "/><path style=" stroke:none;fill-rule:nonzero;fill:#722127;fill-opacity:1;" d="M 212.082031 263.015625 C 212.027344 263.574219 212.050781 263.78125 211.976562 263.941406 C 210.203125 267.660156 208.417969 271.371094 206.625 275.082031 C 205.929688 276.515625 204.824219 277.613281 203.566406 278.566406 C 201.425781 280.183594 199.082031 281.449219 196.632812 282.507812 C 196.300781 282.652344 195.910156 282.679688 195.546875 282.757812 C 195.492188 282.660156 195.429688 282.558594 195.371094 282.453125 C 195.804688 282.089844 196.195312 281.65625 196.671875 281.375 C 197.667969 280.785156 198.683594 280.222656 199.734375 279.75 C 202.976562 278.316406 205.152344 275.921875 206.667969 272.730469 C 208.085938 269.742188 209.796875 266.890625 211.382812 263.980469 C 211.511719 263.738281 211.707031 263.53125 212.082031 263.015625 Z M 212.082031 263.015625 "/><path style=" stroke:none;fill-rule:nonzero;fill:#722127;fill-opacity:1;" d="M 124.304688 218.792969 C 124.011719 219.394531 123.804688 220.0625 123.410156 220.59375 C 120.449219 224.625 118.519531 229.148438 117.183594 233.90625 C 116.433594 236.601562 115.875 239.410156 115.75 242.191406 C 115.644531 244.460938 116.300781 246.761719 116.628906 249.050781 C 116.695312 249.519531 116.796875 249.984375 116.628906 250.523438 C 116.515625 250.273438 116.359375 250.035156 116.296875 249.777344 C 115.789062 247.675781 115.21875 245.589844 114.835938 243.464844 C 114.660156 242.5 114.785156 241.460938 114.902344 240.46875 C 115.28125 237.253906 116.207031 234.183594 117.417969 231.1875 C 119.015625 227.226562 120.546875 223.234375 123.007812 219.699219 C 123.277344 219.308594 123.574219 218.933594 123.855469 218.550781 C 124.003906 218.625 124.15625 218.707031 124.304688 218.792969 Z M 124.304688 218.792969 "/><path style=" stroke:none;fill-rule:nonzero;fill:#722127;fill-opacity:1;" d="M 212.160156 216.304688 C 213.148438 216.839844 214.980469 219.734375 217.867188 225.351562 C 219.402344 228.335938 221.589844 236.539062 221.316406 238.753906 C 221.101562 237.886719 220.976562 237.273438 220.800781 236.683594 C 220.074219 234.277344 219.433594 231.832031 218.5625 229.476562 C 217.90625 227.6875 217.027344 225.976562 216.121094 224.304688 C 214.921875 222.089844 213.59375 219.953125 212.347656 217.765625 C 212.121094 217.367188 212 216.902344 211.832031 216.46875 C 211.945312 216.414062 212.050781 216.355469 212.160156 216.304688 Z M 212.160156 216.304688 "/><path style=" stroke:none;fill-rule:nonzero;fill:#722127;fill-opacity:1;" d="M 136.441406 284.519531 C 137.398438 284.300781 138.039062 284.839844 138.546875 285.292969 C 142.265625 288.582031 146.8125 289.980469 151.472656 291.152344 C 151.703125 291.210938 151.929688 291.273438 152.148438 291.523438 C 151.847656 291.523438 151.535156 291.574219 151.246094 291.523438 C 147.765625 290.925781 144.277344 290.28125 141.160156 288.5625 C 139.554688 287.679688 138.191406 286.351562 136.734375 285.203125 C 136.578125 285.078125 136.554688 284.789062 136.441406 284.519531 Z M 136.441406 284.519531 "/><path style=" stroke:none;fill-rule:nonzero;fill:#722127;fill-opacity:1;" d="M 121.878906 240.621094 C 120.300781 237.117188 123.140625 226.464844 125.128906 224.410156 C 125.078125 224.960938 125.101562 225.339844 125 225.675781 C 124.554688 227.21875 124.042969 228.734375 123.609375 230.277344 C 122.707031 233.519531 121.925781 236.777344 122.003906 240.179688 C 122.019531 240.3125 121.9375 240.445312 121.878906 240.621094 Z M 121.878906 240.621094 "/><path style=" stroke:none;fill-rule:nonzero;fill:#722127;fill-opacity:1;" d="M 215.089844 236.214844 C 214.0625 232.140625 213.261719 228.089844 210.859375 224.5 C 211.144531 224.597656 211.53125 224.617188 211.699219 224.816406 C 212.277344 225.5 212.921875 226.183594 213.273438 226.988281 C 214.425781 229.625 215.085938 232.410156 215.355469 235.273438 C 215.375 235.472656 215.359375 235.675781 215.328125 235.875 C 215.316406 235.957031 215.230469 236.027344 215.089844 236.214844 Z M 215.089844 236.214844 "/><path style=" stroke:none;fill-rule:nonzero;fill:#722127;fill-opacity:1;" d="M 169.71875 199.175781 C 171.058594 197.847656 174.125 197.964844 175.597656 199.199219 C 173.691406 199.195312 171.84375 199.1875 169.71875 199.175781 Z M 169.71875 199.175781 "/><path style=" stroke:none;fill-rule:nonzero;fill:#722127;fill-opacity:1;" d="M 170.261719 204.152344 C 171.078125 203.664062 171.855469 203.796875 172.925781 204.460938 C 171.835938 204.484375 171.058594 204.503906 170.277344 204.527344 C 170.277344 204.398438 170.269531 204.273438 170.261719 204.152344 Z M 170.261719 204.152344 "/></g></svg>